<?xml version="1.0" encoding="UTF-8" standalone="no"?>
<svg
   width="287.963"
   height="288.156"
   version="1.1"
   id="svg10"
   sodipodi:docname="point.svg"
   inkscape:version="1.1 (c68e22c387, 2021-05-23)"
   xmlns:inkscape="http://www.inkscape.org/namespaces/inkscape"
   xmlns:sodipodi="http://sodipodi.sourceforge.net/DTD/sodipodi-0.dtd"
   xmlns="http://www.w3.org/2000/svg"
   xmlns:svg="http://www.w3.org/2000/svg">
  <defs
     id="defs14" />
  <sodipodi:namedview
     id="namedview12"
     pagecolor="#ffffff"
     bordercolor="#666666"
     borderopacity="1.0"
     inkscape:pageshadow="2"
     inkscape:pageopacity="0.0"
     inkscape:pagecheckerboard="0"
     showgrid="false"
     inkscape:zoom="1.6794594"
     inkscape:cx="157.19344"
     inkscape:cy="148.55971"
     inkscape:window-width="1366"
     inkscape:window-height="705"
     inkscape:window-x="-8"
     inkscape:window-y="-8"
     inkscape:window-maximized="1"
     inkscape:current-layer="svg10" />
  <path
     id="path4179"
     style="fill:#303f50;stroke:#303f50;stroke-width:0.07;stroke-miterlimit:1.414"
     d="m 287.98151,144.078 a 144,144 0 0 1 -144,144 144,144 0 0 1 -144.00000365,-144 A 144,144 0 0 1 143.98151,0.07800293 144,144 0 0 1 287.98151,144.078 Z" />
  <path
     id="path6901"
     style="fill:#222e3b;fill-opacity:1;stroke:#222e3b;stroke-width:0.07px;stroke-miterlimit:1.414;stroke-opacity:1"
     d="M 144.69727 132.88086 C 141.53727 132.88086 138.50844 134.13514 136.27344 136.36914 C 134.03944 138.60314 132.7832 141.63592 132.7832 144.79492 C 132.7832 147.95492 134.03944 150.98475 136.27344 153.21875 C 136.39322 153.33848 136.51638 153.45429 136.64062 153.56836 C 136.75473 153.69256 136.87045 153.81582 136.99023 153.93555 C 137.1037 154.04906 137.2204 154.1572 137.33789 154.26562 C 137.45781 154.39686 137.57886 154.52607 137.70508 154.65234 C 137.82648 154.7737 137.95213 154.89033 138.07812 155.00586 C 138.19075 155.12831 138.30568 155.2491 138.42383 155.36719 C 138.54192 155.48533 138.66272 155.60026 138.78516 155.71289 C 138.90069 155.83888 139.01732 155.96453 139.13867 156.08594 C 139.25933 156.20659 139.38261 156.3226 139.50781 156.4375 C 139.62098 156.56065 139.73673 156.68204 139.85547 156.80078 C 139.97525 156.92051 140.09841 157.03632 140.22266 157.15039 C 140.33672 157.27459 140.45254 157.39785 140.57227 157.51758 C 140.69101 157.63632 140.8124 157.75206 140.93555 157.86523 C 141.05045 157.99043 141.16645 158.11372 141.28711 158.23438 C 141.40852 158.35573 141.53416 158.47236 141.66016 158.58789 C 141.77278 158.71033 141.88772 158.83113 142.00586 158.94922 C 142.12395 159.06736 142.24475 159.1823 142.36719 159.29492 C 142.48272 159.42091 142.59935 159.54656 142.7207 159.66797 C 142.84692 159.79419 142.97624 159.91524 143.10742 160.03516 C 143.21585 160.15265 143.32398 160.26935 143.4375 160.38281 C 143.55723 160.50259 143.68049 160.61831 143.80469 160.73242 C 143.91875 160.85667 144.03457 160.97983 144.1543 161.09961 C 144.27304 161.21835 144.39443 161.3341 144.51758 161.44727 C 144.63248 161.57247 144.74849 161.69575 144.86914 161.81641 C 144.99055 161.93776 145.1162 162.05439 145.24219 162.16992 C 145.35481 162.29236 145.46975 162.41316 145.58789 162.53125 C 145.70663 162.65005 145.82803 162.76569 145.95117 162.87891 C 146.06607 163.00415 146.18208 163.12734 146.30273 163.24805 C 146.42839 163.37364 146.55694 163.49587 146.6875 163.61523 C 146.79652 163.73342 146.90536 163.85072 147.01953 163.96484 C 147.13926 164.08463 147.26252 164.20034 147.38672 164.31445 C 147.50079 164.4387 147.6166 164.56186 147.73633 164.68164 C 147.85507 164.80038 147.97646 164.91613 148.09961 165.0293 C 148.21451 165.1545 148.33052 165.27778 148.45117 165.39844 C 148.57258 165.51979 148.69823 165.63642 148.82422 165.75195 C 148.9368 165.87439 149.05183 165.99519 149.16992 166.11328 L 149.16992 166.11523 C 149.28961 166.23492 149.41295 166.34887 149.53711 166.46289 C 149.65113 166.58705 149.76508 166.71039 149.88477 166.83008 C 150.01042 166.95568 150.13897 167.07791 150.26953 167.19727 C 150.37855 167.31545 150.48739 167.43276 150.60156 167.54688 C 150.72129 167.66666 150.84455 167.78237 150.96875 167.89648 C 151.08281 168.02073 151.19863 168.14389 151.31836 168.26367 C 151.4371 168.38241 151.55849 168.49816 151.68164 168.61133 C 151.79654 168.73653 151.91255 168.85981 152.0332 168.98047 L 152.03516 168.98047 C 152.14928 169.09464 152.26658 169.20348 152.38477 169.3125 C 152.50413 169.44306 152.62636 169.57161 152.75195 169.69727 C 152.87164 169.81695 152.99499 169.9309 153.11914 170.04492 C 153.23316 170.16908 153.34711 170.29243 153.4668 170.41211 C 153.59245 170.53771 153.721 170.65993 153.85156 170.7793 C 153.96058 170.89748 154.06942 171.01479 154.18359 171.12891 C 154.30332 171.24869 154.42658 171.36441 154.55078 171.47852 C 154.66484 171.60276 154.78066 171.72592 154.90039 171.8457 C 155.02017 171.96543 155.14333 172.08125 155.26758 172.19531 C 155.38169 172.31951 155.49741 172.44277 155.61719 172.5625 C 155.73065 172.67602 155.84736 172.78415 155.96484 172.89258 C 156.08477 173.02381 156.20581 173.15302 156.33203 173.2793 C 156.45273 173.4 156.57788 173.51592 156.70312 173.63086 C 156.81625 173.75395 156.93013 173.87545 157.04883 173.99414 C 157.17448 174.11974 157.30303 174.24196 157.43359 174.36133 C 157.54257 174.47951 157.65151 174.59682 157.76562 174.71094 L 157.76562 174.71289 C 157.88628 174.83355 158.00957 174.94955 158.13477 175.06445 C 158.24794 175.1876 158.36368 175.30899 158.48242 175.42773 C 158.6022 175.54746 158.72536 175.66328 158.84961 175.77734 C 158.96372 175.90154 159.07944 176.0248 159.19922 176.14453 C 159.31269 176.25805 159.42939 176.36618 159.54688 176.47461 C 159.66679 176.60584 159.78784 176.73505 159.91406 176.86133 C 160.03476 176.98203 160.15991 177.09795 160.28516 177.21289 C 160.39828 177.33598 160.51216 177.45748 160.63086 177.57617 L 160.63281 177.57617 C 160.7509 177.69432 160.8717 177.80924 160.99414 177.92188 C 161.10968 178.04787 161.2263 178.17352 161.34766 178.29492 C 161.46831 178.41558 161.5916 178.53158 161.7168 178.64648 C 161.82997 178.76963 161.94571 178.89102 162.06445 179.00977 C 162.18424 179.12949 162.30739 179.24531 162.43164 179.35938 C 162.54575 179.48356 162.66147 179.60683 162.78125 179.72656 C 162.89472 179.84008 163.01142 179.94822 163.12891 180.05664 C 163.24883 180.18787 163.36987 180.31708 163.49609 180.44336 C 163.6175 180.56471 163.74315 180.68134 163.86914 180.79688 C 163.98177 180.91932 164.0967 181.04011 164.21484 181.1582 C 164.33293 181.27635 164.45373 181.39128 164.57617 181.50391 C 164.69171 181.6299 164.80834 181.75555 164.92969 181.87695 C 165.05034 181.99761 165.17363 182.11362 165.29883 182.22852 C 165.412 182.35166 165.52774 182.47305 165.64648 182.5918 C 165.76627 182.71153 165.88943 182.82734 166.01367 182.94141 C 166.12774 183.0656 166.24355 183.18887 166.36328 183.30859 C 166.48202 183.42734 166.60342 183.54308 166.72656 183.65625 C 166.84146 183.78145 166.95747 183.90474 167.07812 184.02539 C 167.19953 184.14674 167.32518 184.26337 167.45117 184.37891 C 167.5638 184.50135 167.67873 184.62214 167.79688 184.74023 C 167.91562 184.85903 168.03702 184.97467 168.16016 185.08789 C 168.27506 185.21313 168.39106 185.33632 168.51172 185.45703 C 168.63145 185.57676 168.7547 185.69258 168.87891 185.80664 C 168.99297 185.93084 169.10879 186.0541 169.22852 186.17383 C 169.34824 186.29361 169.4715 186.40933 169.5957 186.52344 C 169.70977 186.64768 169.82558 186.77085 169.94531 186.89062 C 170.06406 187.00937 170.18545 187.12511 170.30859 187.23828 C 170.42349 187.36348 170.5395 187.48677 170.66016 187.60742 C 170.78156 187.72877 170.90721 187.8454 171.0332 187.96094 C 171.14583 188.08338 171.26076 188.20418 171.37891 188.32227 C 171.49765 188.44106 171.61905 188.5567 171.74219 188.66992 C 171.85709 188.79516 171.97309 188.91835 172.09375 189.03906 C 172.2194 189.16466 172.34795 189.28689 172.47852 189.40625 C 172.58754 189.52444 172.69638 189.64174 172.81055 189.75586 C 172.93028 189.87564 173.05354 189.99136 173.17773 190.10547 C 173.2918 190.22972 173.40762 190.35287 173.52734 190.47266 C 173.64609 190.5914 173.76749 190.70714 173.89062 190.82031 C 174.00553 190.94551 174.12153 191.0688 174.24219 191.18945 C 174.36359 191.31081 174.48924 191.42743 174.61523 191.54297 C 174.72782 191.66541 174.84285 191.78621 174.96094 191.9043 L 174.96094 191.90625 C 175.08062 192.02593 175.20398 192.13989 175.32812 192.25391 C 175.44215 192.37806 175.5561 192.50141 175.67578 192.62109 C 175.80143 192.74669 175.92999 192.86892 176.06055 192.98828 C 176.16957 193.10647 176.27841 193.22377 176.39258 193.33789 C 176.51231 193.45767 176.63557 193.57339 176.75977 193.6875 C 176.87383 193.81175 176.98965 193.93491 177.10938 194.05469 C 177.22812 194.17343 177.34951 194.28917 177.47266 194.40234 C 177.58756 194.52754 177.70356 194.65083 177.82422 194.77148 L 177.82617 194.77148 C 177.94029 194.88566 178.0576 194.9945 178.17578 195.10352 C 178.29515 195.23408 178.41737 195.36263 178.54297 195.48828 C 178.66265 195.60796 178.786 195.72192 178.91016 195.83594 C 179.02418 195.96009 179.13813 196.08344 179.25781 196.20312 C 179.38347 196.32872 179.51202 196.45095 179.64258 196.57031 C 179.7516 196.6885 179.86044 196.8058 179.97461 196.91992 C 180.09434 197.0397 180.2176 197.15542 180.3418 197.26953 C 180.45586 197.39378 180.57168 197.51694 180.69141 197.63672 C 180.81119 197.75645 180.93435 197.87227 181.05859 197.98633 C 181.1727 198.11053 181.28842 198.23379 181.4082 198.35352 C 181.52167 198.46703 181.63837 198.57517 181.75586 198.68359 C 181.87578 198.81482 181.99683 198.94404 182.12305 199.07031 C 182.24375 199.19101 182.36889 199.30692 182.49414 199.42188 C 182.60727 199.54497 182.72115 199.66646 182.83984 199.78516 L 182.8418 199.78516 C 182.96054 199.9039 183.08194 200.01964 183.20508 200.13281 C 183.31998 200.25801 183.43599 200.3813 183.55664 200.50195 L 183.55664 200.50391 C 183.6773 200.62456 183.80058 200.74057 183.92578 200.85547 C 184.03895 200.97861 184.15469 201.10001 184.27344 201.21875 C 184.39322 201.33848 184.51638 201.45429 184.64062 201.56836 C 184.75473 201.69256 184.87045 201.81582 184.99023 201.93555 C 185.1037 202.04906 185.2204 202.15721 185.33789 202.26562 C 185.45781 202.39686 185.57886 202.52607 185.70508 202.65234 C 185.82578 202.77304 185.95092 202.88896 186.07617 203.00391 C 186.1893 203.127 186.30317 203.24849 186.42188 203.36719 L 186.42383 203.36719 C 186.54192 203.48533 186.66272 203.60026 186.78516 203.71289 C 186.90069 203.83888 187.01732 203.96453 187.13867 204.08594 C 187.25933 204.20659 187.38261 204.3226 187.50781 204.4375 C 187.62098 204.56065 187.73673 204.68204 187.85547 204.80078 C 187.97525 204.92051 188.09841 205.03632 188.22266 205.15039 C 188.33677 205.27459 188.45248 205.39785 188.57227 205.51758 C 188.69101 205.63632 188.81241 205.75206 188.93555 205.86523 C 189.05045 205.99048 189.16645 206.11366 189.28711 206.23438 C 189.40852 206.35573 189.53416 206.47236 189.66016 206.58789 C 189.77278 206.71033 189.88772 206.83113 190.00586 206.94922 C 190.12395 207.06736 190.24475 207.1823 190.36719 207.29492 C 190.48272 207.42091 190.59935 207.54656 190.7207 207.66797 C 190.84136 207.78862 190.96464 207.90463 191.08984 208.01953 C 191.20301 208.14268 191.31876 208.26407 191.4375 208.38281 C 191.55723 208.50254 191.68049 208.61835 191.80469 208.73242 C 191.91875 208.85662 192.03457 208.97988 192.1543 209.09961 C 192.27304 209.21835 192.39443 209.3341 192.51758 209.44727 C 192.63248 209.57247 192.74849 209.69575 192.86914 209.81641 C 192.99055 209.93776 193.1162 210.05439 193.24219 210.16992 C 193.35481 210.29236 193.46975 210.41316 193.58789 210.53125 C 193.70663 210.65005 193.82803 210.76569 193.95117 210.87891 C 194.06607 211.00415 194.18208 211.12734 194.30273 211.24805 C 194.42246 211.36778 194.54572 211.48359 194.66992 211.59766 C 194.78398 211.72186 194.8998 211.84512 195.01953 211.96484 C 195.13926 212.08463 195.26252 212.20034 195.38672 212.31445 C 195.50079 212.4387 195.6166 212.56186 195.73633 212.68164 C 195.85507 212.80038 195.97646 212.91613 196.09961 213.0293 C 196.21451 213.1545 196.33052 213.27778 196.45117 213.39844 C 196.57258 213.51979 196.69823 213.63642 196.82422 213.75195 C 196.93684 213.87439 197.05178 213.99519 197.16992 214.11328 L 197.16992 214.11523 C 197.28961 214.23492 197.41296 214.34887 197.53711 214.46289 C 197.65113 214.58709 197.76508 214.71034 197.88477 214.83008 C 198.01042 214.95568 198.13897 215.07791 198.26953 215.19727 C 198.37855 215.31545 198.48739 215.43276 198.60156 215.54688 C 198.72129 215.66666 198.84455 215.78237 198.96875 215.89648 C 199.08281 216.02073 199.19863 216.14389 199.31836 216.26367 C 199.4371 216.38241 199.5585 216.49816 199.68164 216.61133 C 199.79654 216.73653 199.91255 216.85981 200.0332 216.98047 L 200.03516 216.98047 C 200.15581 217.10112 200.2791 217.21713 200.4043 217.33203 C 200.51747 217.45517 200.63321 217.57657 200.75195 217.69531 L 200.75195 217.69727 C 200.87164 217.81695 200.99499 217.9309 201.11914 218.04492 C 201.23316 218.16908 201.34711 218.29243 201.4668 218.41211 C 201.59245 218.53771 201.721 218.65993 201.85156 218.7793 C 201.96058 218.89748 202.06942 219.01479 202.18359 219.12891 C 202.30332 219.24869 202.42658 219.36441 202.55078 219.47852 C 202.66484 219.60276 202.78066 219.72592 202.90039 219.8457 C 203.01913 219.96445 203.14053 220.08019 203.26367 220.19336 C 203.37857 220.31856 203.49458 220.44184 203.61523 220.5625 L 203.61719 220.5625 C 203.73065 220.67602 203.84736 220.78415 203.96484 220.89258 C 204.08477 221.02381 204.20581 221.15302 204.33203 221.2793 C 204.45273 221.4 204.57789 221.51592 204.70312 221.63086 C 204.81625 221.75395 204.93013 221.87545 205.04883 221.99414 C 205.17448 222.11974 205.30303 222.24196 205.43359 222.36133 C 205.54261 222.47951 205.65146 222.59682 205.76562 222.71094 L 205.76562 222.71289 C 205.88628 222.83355 206.00957 222.94955 206.13477 223.06445 C 206.24794 223.18764 206.36368 223.30894 206.48242 223.42773 C 206.6022 223.54746 206.72536 223.66328 206.84961 223.77734 C 206.96372 223.90154 207.07944 224.0248 207.19922 224.14453 C 207.31269 224.25805 207.42939 224.36618 207.54688 224.47461 C 207.66679 224.60584 207.78784 224.73505 207.91406 224.86133 C 208.03476 224.98203 208.15991 225.09795 208.28516 225.21289 C 208.39828 225.33598 208.51216 225.45748 208.63086 225.57617 L 208.63281 225.57617 C 208.75156 225.69491 208.87295 225.81065 208.99609 225.92383 C 209.111 226.04902 209.227 226.17231 209.34766 226.29297 L 209.34766 226.29492 C 209.46831 226.41558 209.5916 226.53158 209.7168 226.64648 C 209.82997 226.76963 209.94571 226.89102 210.06445 227.00977 C 210.18424 227.12949 210.30739 227.24531 210.43164 227.35938 C 210.54575 227.48356 210.66147 227.60683 210.78125 227.72656 C 210.89472 227.84008 211.01142 227.94822 211.12891 228.05664 C 211.24883 228.18787 211.36987 228.31708 211.49609 228.44336 C 211.61679 228.56406 211.74194 228.67998 211.86719 228.79492 C 211.98031 228.91802 212.0942 229.03951 212.21289 229.1582 L 212.21484 229.1582 C 212.33359 229.277 212.45499 229.39264 212.57812 229.50586 C 212.69303 229.63105 212.80903 229.75434 212.92969 229.875 L 212.92969 229.87695 C 213.05034 229.99761 213.17363 230.11362 213.29883 230.22852 C 213.412 230.35166 213.52774 230.47305 213.64648 230.5918 C 213.76627 230.71153 213.88943 230.82734 214.01367 230.94141 C 214.12778 231.0656 214.2435 231.18887 214.36328 231.30859 C 214.48202 231.42734 214.60342 231.54308 214.72656 231.65625 C 214.84146 231.78149 214.95747 231.90468 215.07812 232.02539 C 215.19953 232.14674 215.32518 232.26338 215.45117 232.37891 C 215.5638 232.50135 215.67873 232.62214 215.79688 232.74023 C 215.91562 232.85903 216.03702 232.97467 216.16016 233.08789 C 216.27506 233.21313 216.39106 233.33632 216.51172 233.45703 C 216.63145 233.57676 216.7547 233.69258 216.87891 233.80664 C 216.99297 233.93084 217.10879 234.0541 217.22852 234.17383 C 217.34824 234.29356 217.4715 234.40937 217.5957 234.52344 C 217.70977 234.64764 217.82558 234.7709 217.94531 234.89062 C 218.06406 235.00937 218.18545 235.12511 218.30859 235.23828 C 218.42349 235.36348 218.5395 235.48677 218.66016 235.60742 C 218.78156 235.72877 218.90721 235.8454 219.0332 235.96094 C 219.14583 236.08338 219.26076 236.20418 219.37891 236.32227 C 219.49765 236.44106 219.61905 236.5567 219.74219 236.66992 C 219.85709 236.79516 219.97309 236.91835 220.09375 237.03906 C 220.21353 237.15879 220.33669 237.27461 220.46094 237.38867 C 220.575 237.51288 220.69082 237.63613 220.81055 237.75586 C 220.93028 237.87564 221.05354 237.99136 221.17773 238.10547 C 221.2918 238.22967 221.40762 238.35293 221.52734 238.47266 C 221.64609 238.5914 221.76749 238.70714 221.89062 238.82031 C 222.00553 238.94551 222.12153 239.0688 222.24219 239.18945 C 222.36359 239.31081 222.48924 239.42743 222.61523 239.54297 C 222.72786 239.66541 222.84279 239.78621 222.96094 239.9043 L 222.96094 239.90625 C 223.08062 240.02593 223.20398 240.13989 223.32812 240.25391 C 223.44215 240.3781 223.5561 240.50136 223.67578 240.62109 C 223.80143 240.74669 223.92999 240.86892 224.06055 240.98828 C 224.16957 241.10647 224.27841 241.22377 224.39258 241.33789 C 224.51231 241.45767 224.63557 241.57339 224.75977 241.6875 C 224.87383 241.81175 224.98965 241.93491 225.10938 242.05469 C 225.22812 242.17343 225.34951 242.28917 225.47266 242.40234 C 225.58756 242.52754 225.70356 242.65083 225.82422 242.77148 L 225.82617 242.77148 C 225.94683 242.89214 226.07012 243.00814 226.19531 243.12305 C 226.30849 243.24619 226.42423 243.36759 226.54297 243.48633 L 226.54297 243.48828 C 226.66265 243.60796 226.786 243.72192 226.91016 243.83594 C 227.02418 243.96014 227.13813 244.0834 227.25781 244.20312 C 227.38347 244.32872 227.51202 244.45095 227.64258 244.57031 C 227.7516 244.6885 227.86044 244.8058 227.97461 244.91992 C 228.09434 245.0397 228.2176 245.15542 228.3418 245.26953 C 228.45586 245.39378 228.57168 245.51694 228.69141 245.63672 C 228.8102 245.75546 228.9315 245.87121 229.05469 245.98438 C 229.16959 246.10957 229.28559 246.23286 229.40625 246.35352 L 229.4082 246.35352 C 229.52789 246.47325 229.65124 246.5871 229.77539 246.70117 C 229.88941 246.82532 230.00336 246.94868 230.12305 247.06836 L 230.12305 247.07031 C 230.24375 247.19101 230.36889 247.30692 230.49414 247.42188 C 230.60727 247.54497 230.72115 247.66646 230.83984 247.78516 L 230.8418 247.78516 C 230.96054 247.9039 231.08194 248.01964 231.20508 248.13281 C 231.32003 248.25801 231.43593 248.3813 231.55664 248.50195 L 231.55664 248.50391 C 231.6773 248.62456 231.80059 248.74057 231.92578 248.85547 C 232.03895 248.97866 232.15469 249.09995 232.27344 249.21875 C 232.39223 249.33749 232.51353 249.45324 232.63672 249.56641 C 232.75162 249.6916 232.86763 249.81489 232.98828 249.93555 L 232.99023 249.93555 C 233.1037 250.04906 233.2204 250.15721 233.33789 250.26562 C 233.45781 250.39686 233.57886 250.52607 233.70508 250.65234 C 233.82578 250.77304 233.95092 250.88896 234.07617 251.00391 C 234.1893 251.127 234.30317 251.24849 234.42188 251.36719 L 234.42383 251.36719 C 234.54257 251.48593 234.66397 251.60167 234.78711 251.71484 C 234.90202 251.84004 235.01802 251.96333 235.13867 252.08398 L 235.13867 252.08594 C 235.25933 252.20659 235.38261 252.3226 235.50781 252.4375 C 235.62098 252.56069 235.73673 252.68199 235.85547 252.80078 C 235.97525 252.92051 236.09841 253.03632 236.22266 253.15039 C 236.33677 253.27459 236.45248 253.39785 236.57227 253.51758 C 236.69101 253.63632 236.81241 253.75206 236.93555 253.86523 C 236.94426 253.87473 236.95416 253.8831 236.96289 253.89258 A 144 144 0 0 0 253.79688 237.06055 C 253.78876 237.05304 253.78158 237.0446 253.77344 237.03711 C 253.54362 236.78687 253.30298 236.54623 253.05273 236.31641 C 252.83063 236.07478 252.5986 235.84368 252.35742 235.62109 C 252.12317 235.36496 251.87668 235.12156 251.62109 234.88672 C 251.39247 234.63789 251.15311 234.39856 250.9043 234.16992 C 250.67632 233.92181 250.43946 233.68311 250.19141 233.45508 C 249.96223 233.20551 249.72214 232.96558 249.47266 232.73633 C 249.2434 232.48681 249.00347 232.24679 248.75391 232.01758 C 248.52587 231.76952 248.28718 231.53266 248.03906 231.30469 C 247.81043 231.05584 247.5711 230.81654 247.32227 230.58789 C 247.08743 230.3323 246.84402 230.08582 246.58789 229.85156 C 246.36533 229.61039 246.13418 229.37836 245.89258 229.15625 C 245.66276 228.90601 245.42212 228.66537 245.17188 228.43555 C 244.94384 228.18749 244.70514 227.95063 244.45703 227.72266 C 244.2284 227.47383 243.98907 227.2345 243.74023 227.00586 C 243.5054 226.75027 243.26199 226.50379 243.00586 226.26953 C 242.7833 226.02835 242.55215 225.79633 242.31055 225.57422 C 242.08073 225.32398 241.84008 225.08334 241.58984 224.85352 C 241.36184 224.60546 241.12309 224.3686 240.875 224.14062 C 240.64637 223.89178 240.40704 223.65248 240.1582 223.42383 C 239.92336 223.16824 239.67996 222.92176 239.42383 222.6875 C 239.20125 222.44631 238.97013 222.21431 238.72852 221.99219 C 238.49869 221.74195 238.25805 221.50131 238.00781 221.27148 C 237.78572 221.02987 237.55366 220.79875 237.3125 220.57617 C 237.07824 220.32004 236.83176 220.07664 236.57617 219.8418 C 236.34133 219.58621 236.09793 219.33972 235.8418 219.10547 C 235.61922 218.86429 235.3881 218.63227 235.14648 218.41016 C 234.91106 218.15382 234.66504 217.90677 234.4082 217.67188 C 234.19147 217.43714 233.96525 217.21082 233.73047 216.99414 C 233.49621 216.73801 233.24973 216.4946 232.99414 216.25977 C 232.76552 216.01093 232.52616 215.7716 232.27734 215.54297 C 232.04937 215.29484 231.81251 215.05618 231.56445 214.82812 C 231.33463 214.57788 231.09399 214.33724 230.84375 214.10742 C 230.62164 213.8658 230.38961 213.6347 230.14844 213.41211 C 229.91418 213.15598 229.6677 212.91257 229.41211 212.67773 C 229.18349 212.4289 228.94413 212.18957 228.69531 211.96094 C 228.46734 211.71282 228.23048 211.47413 227.98242 211.24609 C 227.75322 210.99653 227.51318 210.7566 227.26367 210.52734 C 227.03442 210.27782 226.79449 210.03781 226.54492 209.80859 C 226.31689 209.56054 226.07819 209.32368 225.83008 209.0957 C 225.60144 208.84686 225.36211 208.60756 225.11328 208.37891 C 224.87844 208.12332 224.63504 207.87683 224.37891 207.64258 C 224.15634 207.4014 223.92519 207.16937 223.68359 206.94727 C 223.45377 206.69702 223.21313 206.45638 222.96289 206.22656 C 222.73486 205.97851 222.49616 205.74164 222.24805 205.51367 C 222.01941 205.26483 221.78008 205.02551 221.53125 204.79688 C 221.29641 204.54129 221.053 204.2948 220.79688 204.06055 C 220.5802 203.82576 220.35388 203.59954 220.11914 203.38281 C 219.88424 203.12598 219.6372 202.87995 219.38086 202.64453 C 219.15283 202.39647 218.91413 202.15961 218.66602 201.93164 C 218.43738 201.6828 218.19805 201.44349 217.94922 201.21484 C 217.71438 200.95926 217.47097 200.71277 217.21484 200.47852 C 216.99227 200.23733 216.76114 200.00533 216.51953 199.7832 C 216.28971 199.53296 216.04907 199.29232 215.79883 199.0625 C 215.57673 198.82089 215.34468 198.58976 215.10352 198.36719 C 214.86926 198.11106 214.62277 197.86765 214.36719 197.63281 C 214.13235 197.37723 213.88894 197.13074 213.63281 196.89648 C 213.41024 196.6553 213.17911 196.4233 212.9375 196.20117 C 212.70768 195.95093 212.46704 195.71029 212.2168 195.48047 C 211.99469 195.23886 211.76266 195.00773 211.52148 194.78516 C 211.28723 194.52903 211.04074 194.28562 210.78516 194.05078 C 210.55652 193.80195 210.31719 193.56262 210.06836 193.33398 C 209.84039 193.08586 209.60353 192.84719 209.35547 192.61914 C 209.12565 192.3689 208.88501 192.12826 208.63477 191.89844 C 208.41266 191.65681 208.18063 191.42572 207.93945 191.20312 C 207.7052 190.947 207.45872 190.70359 207.20312 190.46875 C 206.97449 190.21992 206.73516 189.98059 206.48633 189.75195 C 206.25836 189.50384 206.02149 189.26514 205.77344 189.03711 C 205.54424 188.78755 205.3042 188.54762 205.05469 188.31836 C 204.82543 188.06882 204.5855 187.82884 204.33594 187.59961 C 204.1079 187.35155 203.86921 187.11469 203.62109 186.88672 C 203.39246 186.63789 203.15313 186.39856 202.9043 186.16992 C 202.66946 185.91434 202.42605 185.66785 202.16992 185.43359 C 201.94736 185.19242 201.71621 184.96039 201.47461 184.73828 C 201.24479 184.48804 201.00415 184.2474 200.75391 184.01758 C 200.52587 183.76952 200.28718 183.53266 200.03906 183.30469 C 199.81043 183.05584 199.5711 182.81654 199.32227 182.58789 C 199.08743 182.3323 198.84402 182.08582 198.58789 181.85156 C 198.37121 181.61678 198.14489 181.39056 197.91016 181.17383 C 197.67526 180.917 197.42821 180.67097 197.17188 180.43555 C 196.94384 180.18749 196.70514 179.95063 196.45703 179.72266 C 196.2284 179.47381 195.98907 179.23451 195.74023 179.00586 C 195.5054 178.75027 195.26199 178.50379 195.00586 178.26953 C 194.78918 178.03475 194.56286 177.80853 194.32812 177.5918 C 194.09323 177.33496 193.84618 177.08894 193.58984 176.85352 C 193.36775 176.6119 193.13569 176.38078 192.89453 176.1582 C 192.66028 175.90207 192.41379 175.65867 192.1582 175.42383 C 191.92336 175.16824 191.67996 174.92176 191.42383 174.6875 C 191.20125 174.44631 190.97013 174.21431 190.72852 173.99219 C 190.49869 173.74195 190.25805 173.50131 190.00781 173.27148 C 189.7857 173.02987 189.55368 172.79875 189.3125 172.57617 C 189.07824 172.32004 188.83176 172.07664 188.57617 171.8418 C 188.34752 171.59296 188.10822 171.35363 187.85938 171.125 C 187.6314 170.87687 187.39454 170.6382 187.14648 170.41016 C 186.91106 170.15382 186.66504 169.90676 186.4082 169.67188 C 186.19147 169.43714 185.96525 169.21082 185.73047 168.99414 C 185.49621 168.73801 185.24973 168.4946 184.99414 168.25977 C 184.76551 168.01093 184.52618 167.7716 184.27734 167.54297 C 184.04937 167.29486 183.81251 167.05617 183.56445 166.82812 C 183.33525 166.57856 183.09521 166.33863 182.8457 166.10938 C 182.61645 165.85984 182.37652 165.61986 182.12695 165.39062 C 181.89892 165.14257 181.66022 164.90571 181.41211 164.67773 C 181.18348 164.4289 180.94414 164.18957 180.69531 163.96094 C 180.46734 163.71282 180.23048 163.47413 179.98242 163.24609 C 179.75321 162.99653 179.51319 162.7566 179.26367 162.52734 C 179.03442 162.27782 178.79449 162.03781 178.54492 161.80859 C 178.31689 161.56054 178.07819 161.32368 177.83008 161.0957 C 177.60144 160.84686 177.36211 160.60756 177.11328 160.37891 C 176.87844 160.12332 176.63504 159.87683 176.37891 159.64258 C 176.16223 159.40779 175.93591 159.18157 175.70117 158.96484 C 175.46628 158.70801 175.21923 158.46199 174.96289 158.22656 C 174.73486 157.97851 174.49616 157.74164 174.24805 157.51367 C 174.01941 157.26481 173.78008 157.02554 173.53125 156.79688 C 173.29641 156.54129 173.053 156.2948 172.79688 156.06055 C 172.5802 155.82576 172.35388 155.59954 172.11914 155.38281 C 171.88424 155.12598 171.6372 154.87995 171.38086 154.64453 C 171.15872 154.40292 170.92675 154.17179 170.68555 153.94922 C 170.45129 153.69309 170.2048 153.44968 169.94922 153.21484 C 169.71438 152.95926 169.47097 152.71277 169.21484 152.47852 C 168.99227 152.23733 168.76114 152.00533 168.51953 151.7832 C 168.28971 151.53296 168.04907 151.29232 167.79883 151.0625 C 167.57672 150.82089 167.34469 150.58976 167.10352 150.36719 C 166.86926 150.11106 166.62277 149.86765 166.36719 149.63281 C 166.13854 149.38398 165.89924 149.14465 165.65039 148.91602 C 165.42242 148.66787 165.18556 148.42923 164.9375 148.20117 C 164.70768 147.95093 164.46704 147.71029 164.2168 147.48047 C 163.99469 147.23886 163.76266 147.00773 163.52148 146.78516 C 163.28723 146.52903 163.04074 146.28562 162.78516 146.05078 C 162.55651 145.80195 162.3172 145.56262 162.06836 145.33398 C 161.84039 145.08587 161.60353 144.84717 161.35547 144.61914 C 161.12627 144.36958 160.88623 144.12965 160.63672 143.90039 C 160.40746 143.65085 160.16753 143.41087 159.91797 143.18164 C 159.68994 142.93358 159.45125 142.69672 159.20312 142.46875 C 158.97449 142.21992 158.73516 141.98059 158.48633 141.75195 C 158.25836 141.50384 158.02149 141.26514 157.77344 141.03711 C 157.54421 140.78755 157.30423 140.54762 157.05469 140.31836 C 156.82543 140.06882 156.5855 139.82884 156.33594 139.59961 C 156.1079 139.35155 155.86921 139.11469 155.62109 138.88672 C 155.39246 138.63789 155.15313 138.39856 154.9043 138.16992 C 154.66946 137.91434 154.42605 137.66785 154.16992 137.43359 C 153.95324 137.19881 153.72692 136.97259 153.49219 136.75586 C 151.31379 134.37403 148.17948 132.88086 144.69727 132.88086 z " />
  <path
     id="path853"
     style="fill:#d3d388;stroke:#d3d388;stroke-width:0.07;stroke-miterlimit:1.414"
     d="M 155.89565,144.078 A 11.914143,11.914143 0 0 1 143.98151,155.99215 11.914143,11.914143 0 0 1 132.06736,144.078 11.914143,11.914143 0 0 1 143.98151,132.16386 11.914143,11.914143 0 0 1 155.89565,144.078 Z" />
</svg>
