<?xml version="1.0" encoding="UTF-8" standalone="no"?>
<svg
   width="287.963"
   height="288.156"
   version="1.1"
   id="svg10"
   sodipodi:docname="square.svg"
   inkscape:version="1.1 (c68e22c387, 2021-05-23)"
   inkscape:export-filename="C:\Users\lafra\OneDrive - Universidad de Córdoba\github-website\dyn-gos.github.io\assets\img\square.png"
   inkscape:export-xdpi="33.34"
   inkscape:export-ydpi="33.34"
   xmlns:inkscape="http://www.inkscape.org/namespaces/inkscape"
   xmlns:sodipodi="http://sodipodi.sourceforge.net/DTD/sodipodi-0.dtd"
   xmlns="http://www.w3.org/2000/svg"
   xmlns:svg="http://www.w3.org/2000/svg">
  <defs
     id="defs14" />
  <sodipodi:namedview
     id="namedview12"
     pagecolor="#ffffff"
     bordercolor="#666666"
     borderopacity="1.0"
     inkscape:pageshadow="2"
     inkscape:pageopacity="0.0"
     inkscape:pagecheckerboard="0"
     showgrid="false"
     inkscape:zoom="1.6794594"
     inkscape:cx="216.73641"
     inkscape:cy="136.65112"
     inkscape:window-width="1366"
     inkscape:window-height="705"
     inkscape:window-x="-8"
     inkscape:window-y="-8"
     inkscape:window-maximized="1"
     inkscape:current-layer="svg10" />
  <path
     id="path4179"
     style="fill:#303f50;stroke:#303f50;stroke-width:0.07;stroke-miterlimit:1.414"
     d="m 287.98151,144.078 a 144,144 0 0 1 -144,144 144,144 0 0 1 -144.00000365,-144 A 144,144 0 0 1 143.98151,0.07800293 144,144 0 0 1 287.98151,144.078 Z" />
  <path
     id="path6857"
     style="fill:#222e3b;stroke:#222e3b;stroke-width:0.07px;stroke-miterlimit:1.414;stroke-opacity:1;fill-opacity:1"
     d="M 211.625 65.623047 C 210.50703 65.623428 209.40842 65.674931 208.35742 65.761719 C 163.26942 65.751019 118.16364 65.766153 73.085938 65.751953 C 62.771237 65.656253 60.374475 76.181366 61.171875 84.322266 C 61.176775 129.80947 61.176075 175.29816 61.171875 220.78516 C 61.208233 224.60243 62.556143 227.24111 64.65625 229.05664 C 64.874894 229.28499 65.087087 229.52018 65.326172 229.72656 C 65.544079 229.95377 65.755976 230.18715 65.994141 230.39258 C 66.211329 230.61885 66.420908 230.85197 66.658203 231.05664 C 66.876597 231.28419 67.087451 231.51891 67.326172 231.72461 C 67.53972 231.94689 67.745542 232.1775 67.978516 232.37891 C 68.197159 232.60727 68.409352 232.84243 68.648438 233.04883 C 68.866344 233.27603 69.078241 233.50941 69.316406 233.71484 C 69.533843 233.94139 69.742879 234.17597 69.980469 234.38086 C 70.19668 234.60607 70.406444 234.83722 70.642578 235.04102 C 70.859791 235.26756 71.069288 235.50213 71.306641 235.70703 C 71.523559 235.9332 71.733706 236.1665 71.970703 236.37109 C 72.18861 236.59828 72.400507 236.83169 72.638672 237.03711 C 72.85611 237.26366 73.065143 237.49823 73.302734 237.70312 C 73.520834 237.93028 73.732339 238.16376 73.970703 238.36914 C 74.186231 238.59348 74.395552 238.82426 74.630859 239.02734 C 74.845857 239.25145 75.052389 239.48458 75.287109 239.6875 C 75.506743 239.91689 75.720681 240.15214 75.960938 240.35938 C 76.178124 240.58567 76.387704 240.81875 76.625 241.02344 C 76.843396 241.25099 77.054246 241.4857 77.292969 241.69141 C 77.506517 241.91368 77.712339 242.1443 77.945312 242.3457 C 78.163956 242.57405 78.37615 242.80925 78.615234 243.01562 C 78.833142 243.24283 79.045038 243.47621 79.283203 243.68164 C 79.50064 243.90818 79.709676 244.14278 79.947266 244.34766 C 80.165365 244.57483 80.37687 244.80828 80.615234 245.01367 C 80.828783 245.23593 81.034605 245.46658 81.267578 245.66797 C 81.486223 245.89633 81.698414 246.13149 81.9375 246.33789 C 82.155407 246.5651 82.367304 246.79847 82.605469 247.00391 C 82.822907 247.23046 83.03194 247.46503 83.269531 247.66992 C 83.485742 247.89513 83.695507 248.12628 83.931641 248.33008 C 84.149841 248.55765 84.36109 248.79231 84.599609 248.99805 C 84.813879 249.22123 85.020063 249.45214 85.253906 249.6543 C 85.473537 249.88368 85.687482 250.11895 85.927734 250.32617 C 86.144923 250.55246 86.354501 250.78555 86.591797 250.99023 C 86.810191 251.21777 87.021045 251.45251 87.259766 251.6582 C 87.473315 251.88048 87.679135 252.1111 87.912109 252.3125 C 88.130754 252.54084 88.342946 252.77604 88.582031 252.98242 C 88.799939 253.20962 89.011834 253.443 89.25 253.64844 C 89.467189 253.87473 89.676766 254.10781 89.914062 254.3125 C 90.132457 254.54005 90.343311 254.77477 90.582031 254.98047 C 90.795585 255.20275 91.001396 255.43336 91.234375 255.63477 C 91.453017 255.86313 91.665215 256.09829 91.904297 256.30469 C 92.122211 256.53189 92.334094 256.76527 92.572266 256.9707 C 92.789702 257.19724 92.99874 257.43184 93.236328 257.63672 C 93.454455 257.86393 93.6659 258.09731 93.904297 258.30273 C 94.117846 258.525 94.323666 258.75564 94.556641 258.95703 C 94.775282 259.18539 94.987481 259.42055 95.226562 259.62695 C 95.443483 259.85311 95.653627 260.08643 95.890625 260.29102 C 96.108778 260.51848 96.320137 260.75334 96.558594 260.95898 C 96.775709 261.18513 96.985456 261.41848 97.222656 261.62305 C 97.439184 261.84865 97.650203 262.07908 97.886719 262.2832 C 98.101721 262.50731 98.308243 262.74044 98.542969 262.94336 C 98.762598 263.17275 98.976546 263.408 99.216797 263.61523 C 99.433991 263.84153 99.643557 264.07461 99.880859 264.2793 C 100.09925 264.50683 100.31011 264.74158 100.54883 264.94727 C 100.76237 265.16954 100.9682 265.40016 101.20117 265.60156 C 101.41982 265.82991 101.63201 266.0651 101.87109 266.27148 C 102.089 266.49869 102.3009 266.73207 102.53906 266.9375 C 102.75625 267.16379 102.96584 267.39688 103.20312 267.60156 C 103.42153 267.82911 103.63237 268.06383 103.87109 268.26953 C 104.08465 268.49181 104.29045 268.72242 104.52344 268.92383 C 104.74208 269.15219 104.95428 269.38735 105.19336 269.59375 C 105.41029 269.81992 105.62042 270.05322 105.85742 270.25781 C 106.07557 270.48526 106.28694 270.72015 106.52539 270.92578 C 106.74251 271.15193 106.95225 271.38528 107.18945 271.58984 C 107.404 271.81338 107.61153 272.04365 107.8457 272.24609 C 108.06435 272.47445 108.27655 272.70962 108.51562 272.91602 C 108.73353 273.1432 108.94544 273.37661 109.18359 273.58203 C 109.40103 273.80858 109.61007 274.04315 109.84766 274.24805 C 110.0658 274.47526 110.27722 274.70864 110.51562 274.91406 C 110.73116 275.1384 110.94048 275.36919 111.17578 275.57227 C 111.39079 275.79637 111.5973 276.02951 111.83203 276.23242 C 112.05067 276.46078 112.26287 276.69594 112.50195 276.90234 C 112.71987 277.12955 112.93175 277.36293 113.16992 277.56836 C 113.38834 277.79593 113.59914 278.03061 113.83789 278.23633 C 114.05243 278.45964 114.26 278.69034 114.49414 278.89258 C 114.71013 279.11794 114.91837 279.35074 115.1543 279.55469 C 115.37393 279.78408 115.58787 280.01933 115.82812 280.22656 C 116.04532 280.45284 116.2549 280.68596 116.49219 280.89062 C 116.71058 281.11818 116.92144 281.35289 117.16016 281.55859 C 117.37372 281.78087 117.57952 282.01148 117.8125 282.21289 C 118.03114 282.44125 118.24334 282.67641 118.48242 282.88281 C 118.69935 283.10898 118.90948 283.34228 119.14648 283.54688 C 119.36463 283.77434 119.576 284.0092 119.81445 284.21484 C 120.03158 284.44099 120.24131 284.67435 120.47852 284.87891 C 120.69306 285.10244 120.90059 285.33272 121.13477 285.53516 C 121.35341 285.76352 121.56561 285.99868 121.80469 286.20508 C 121.82128 286.22238 121.83893 286.23851 121.85547 286.25586 A 144 144 0 0 0 143.98242 288.07812 A 144 144 0 0 0 287.98242 144.07812 A 144 144 0 0 0 287.10156 131.78125 C 286.95569 131.63154 286.81243 131.47923 286.6582 131.33789 C 286.44937 131.10679 286.22915 130.88804 286 130.67773 C 285.78763 130.44235 285.56349 130.2197 285.33008 130.00586 C 285.11866 129.77198 284.89432 129.55242 284.66211 129.33984 C 284.45153 129.10703 284.22925 128.88748 283.99805 128.67578 C 283.78851 128.4441 283.5659 128.22639 283.33594 128.01562 C 283.12554 127.7828 282.90288 127.56328 282.67188 127.35156 C 282.4624 127.11977 282.24161 126.90033 282.01172 126.68945 C 281.79777 126.45243 281.57122 126.22885 281.33594 126.01367 C 281.12734 125.78332 280.90654 125.56707 280.67773 125.35742 C 280.46734 125.12459 280.24468 124.90508 280.01367 124.69336 C 279.80482 124.46226 279.58463 124.2435 279.35547 124.0332 C 279.14311 123.79782 278.91895 123.57517 278.68555 123.36133 C 278.47412 123.12744 278.24981 122.9079 278.01758 122.69531 C 277.80701 122.4625 277.5847 122.24294 277.35352 122.03125 C 277.14396 121.79957 276.92138 121.58186 276.69141 121.37109 C 276.48258 121.13998 276.26235 120.92125 276.0332 120.71094 C 275.82084 120.47555 275.59668 120.2529 275.36328 120.03906 C 275.15185 119.80516 274.92754 119.58564 274.69531 119.37305 C 274.48475 119.14023 274.26244 118.92068 274.03125 118.70898 C 273.82169 118.4773 273.59912 118.25959 273.36914 118.04883 C 273.15875 117.816 272.93608 117.59648 272.70508 117.38477 C 272.49562 117.15298 272.27482 116.93352 272.04492 116.72266 C 271.83334 116.48825 271.60942 116.26772 271.37695 116.05469 C 271.16402 115.81904 270.93912 115.59684 270.70508 115.38281 C 270.49664 115.15262 270.27549 114.93609 270.04688 114.72656 C 269.83587 114.49305 269.6126 114.27283 269.38086 114.06055 C 269.1719 113.82941 268.95194 113.61072 268.72266 113.40039 C 268.50922 113.16393 268.2835 112.94127 268.04883 112.72656 C 267.83967 112.49547 267.61815 112.27863 267.38867 112.06836 C 267.17828 111.83553 266.95562 111.61602 266.72461 111.4043 C 266.51576 111.1732 266.29557 110.95444 266.06641 110.74414 C 265.85466 110.50944 265.6311 110.2875 265.39844 110.07422 C 265.18652 109.83968 264.96134 109.61938 264.72852 109.40625 C 264.51795 109.17344 264.29564 108.95388 264.06445 108.74219 C 263.8549 108.5105 263.63232 108.2928 263.40234 108.08203 C 263.19351 107.85092 262.97328 107.63218 262.74414 107.42188 C 262.53178 107.18649 262.30762 106.96384 262.07422 106.75 C 261.86402 106.51746 261.64092 106.29937 261.41016 106.08789 C 261.19723 105.85225 260.97231 105.63004 260.73828 105.41602 C 260.52983 105.18581 260.30871 104.9693 260.08008 104.75977 C 259.87125 104.52867 259.65102 104.30991 259.42188 104.09961 C 259.2095 103.86422 258.98537 103.64158 258.75195 103.42773 C 258.54148 103.1949 258.31898 102.97539 258.08789 102.76367 C 257.87533 102.52853 257.64959 102.30736 257.41602 102.09375 C 257.20758 101.86354 256.98643 101.64704 256.75781 101.4375 C 256.54679 101.20399 256.32355 100.98377 256.0918 100.77148 C 255.88284 100.54035 255.66288 100.32165 255.43359 100.11133 C 255.22016 99.874866 254.99444 99.652212 254.75977 99.4375 C 254.54981 99.205518 254.32809 98.986392 254.09766 98.775391 C 253.88709 98.542576 253.66478 98.323022 253.43359 98.111328 C 253.2256 97.881366 253.00546 97.664431 252.77734 97.455078 C 252.5656 97.220381 252.34204 96.998434 252.10938 96.785156 C 251.89746 96.550609 251.67228 96.330319 251.43945 96.117188 C 251.22889 95.884377 251.00658 95.664816 250.77539 95.453125 C 250.56481 95.220307 250.34253 95.00076 250.11133 94.789062 C 249.90335 94.559095 249.68318 94.342171 249.45508 94.132812 C 249.24272 93.897429 249.01856 93.674777 248.78516 93.460938 C 248.57469 93.228086 248.35218 93.008609 248.12109 92.796875 C 247.90855 92.561741 247.68278 92.340557 247.44922 92.126953 C 247.24077 91.896747 247.01965 91.680238 246.79102 91.470703 C 246.58062 91.237873 246.35796 91.018362 246.12695 90.806641 C 245.91749 90.574853 245.69669 90.355397 245.4668 90.144531 C 245.25492 89.909799 245.03163 89.687908 244.79883 89.474609 C 244.58627 89.23947 244.36053 89.018296 244.12695 88.804688 C 243.91852 88.574482 243.69736 88.357971 243.46875 88.148438 C 243.25929 87.91665 243.03849 87.697194 242.80859 87.486328 C 242.59734 87.252277 242.37464 87.031099 242.14258 86.818359 C 241.93006 86.583129 241.70425 86.362129 241.4707 86.148438 C 241.26077 85.91646 241.03901 85.697326 240.80859 85.486328 C 240.59803 85.253508 240.37572 85.033965 240.14453 84.822266 C 239.93497 84.590577 239.7124 84.372881 239.48242 84.162109 C 239.27359 83.931004 239.05337 83.712258 238.82422 83.501953 C 238.61029 83.264833 238.38372 83.041433 238.14844 82.826172 C 237.9385 82.594194 237.71675 82.375062 237.48633 82.164062 C 237.27575 81.931241 237.05347 81.711701 236.82227 81.5 C 236.61273 81.268313 236.39012 81.050613 236.16016 80.839844 C 235.95071 80.608055 235.72988 80.388602 235.5 80.177734 C 235.28813 79.943001 235.06483 79.721113 234.83203 79.507812 C 234.61948 79.272672 234.39372 79.051501 234.16016 78.837891 C 233.9517 78.607685 233.73058 78.391175 233.50195 78.181641 C 233.29156 77.948807 233.0689 77.729303 232.83789 77.517578 C 232.62843 77.285791 232.40763 77.066335 232.17773 76.855469 C 231.96586 76.620733 231.74257 76.398848 231.50977 76.185547 C 231.29721 75.950407 231.07147 75.729234 230.83789 75.515625 C 230.62945 75.285417 230.40831 75.068911 230.17969 74.859375 C 229.96928 74.626542 229.74665 74.407037 229.51562 74.195312 C 229.3068 73.964207 229.08656 73.745463 228.85742 73.535156 C 228.6435 73.298037 228.41691 73.074635 228.18164 72.859375 C 227.9717 72.627395 227.74995 72.408265 227.51953 72.197266 C 227.30896 71.964445 227.08666 71.744903 226.85547 71.533203 C 226.64591 71.301514 226.42334 71.083818 226.19336 70.873047 C 225.98453 70.64194 225.7643 70.423197 225.53516 70.212891 C 222.37383 66.708916 216.80143 65.621283 211.625 65.623047 z " />
  <path
     id="path853"
     style="fill:#d3d388;stroke:#d3d388;stroke-width:0.07;stroke-miterlimit:1.414"
     d="m 72.421875,65.087891 c -10.314681,-0.09573 -12.711472,10.42951 -11.914063,18.570455 0.0049,45.487674 0.0042,90.976334 0,136.463384 0.114612,12.03196 13.192306,12.41283 22.140672,11.9062 44.296826,0.0103 88.594066,-0.006 132.890656,0.008 13.35417,-0.36713 12.02045,-12.45744 11.90806,-21.18955 0.009,-44.61328 -0.003,-89.22657 0.006,-133.839844 0.11396,-10.97198 -11.35134,-12.60439 -19.7598,-11.910112 -45.0883,-0.01063 -90.19351,0.0057 -135.271525,-0.0085 z m 12.128906,23.824218 c 39.690749,0.0088 79.381549,-0.0029 119.072269,0.0059 0.005,39.761641 0.004,79.523421 0,119.285051 -39.76229,0.005 -79.52471,0.004 -119.286991,0 -0.0049,-39.76102 -0.0049,-79.52218 0,-119.283204 l 0.21289,-0.0059 z" />
</svg>
