<?xml version="1.0" encoding="UTF-8" standalone="no"?>
<svg
   width="287.963"
   height="288.156"
   version="1.1"
   id="svg10"
   sodipodi:docname="triangle.svg"
   inkscape:version="1.1 (c68e22c387, 2021-05-23)"
   inkscape:export-filename="C:\Users\lafra\OneDrive - Universidad de Córdoba\github-website\dyn-gos.github.io\assets\img\triangle.png"
   inkscape:export-xdpi="33.34"
   inkscape:export-ydpi="33.34"
   xmlns:inkscape="http://www.inkscape.org/namespaces/inkscape"
   xmlns:sodipodi="http://sodipodi.sourceforge.net/DTD/sodipodi-0.dtd"
   xmlns="http://www.w3.org/2000/svg"
   xmlns:svg="http://www.w3.org/2000/svg">
  <defs
     id="defs14" />
  <sodipodi:namedview
     id="namedview12"
     pagecolor="#ffffff"
     bordercolor="#666666"
     borderopacity="1.0"
     inkscape:pageshadow="2"
     inkscape:pageopacity="0.0"
     inkscape:pagecheckerboard="0"
     showgrid="false"
     inkscape:zoom="1.804578"
     inkscape:cx="138.25947"
     inkscape:cy="141.58435"
     inkscape:window-width="1366"
     inkscape:window-height="705"
     inkscape:window-x="-8"
     inkscape:window-y="-8"
     inkscape:window-maximized="1"
     inkscape:current-layer="svg10" />
  <path
     id="path4179"
     style="fill:#303f50;stroke:#303f50;stroke-width:0.07;stroke-miterlimit:1.414"
     d="m 287.98059,142.79617 a 144,144 0 0 1 -144,144 144,144 0 0 1 -144.00000569,-144 A 144,144 0 0 1 143.98059,-1.2038204 a 144,144 0 0 1 144,143.9999904 z" />
  <path
     id="path3992"
     style="fill:#222e3b;fill-opacity:1;stroke:#222e3b;stroke-opacity:1"
     d="M 144.9707 54.326172 C 142.4397 54.356972 139.90295 56.024641 138.00195 59.306641 C 135.58095 63.485641 133.04958 67.600109 130.64258 71.787109 C 124.06058 83.236109 117.53814 94.72367 110.95312 106.17188 C 103.73014 118.72987 96.453797 131.25664 89.216797 143.80664 C 83.356097 153.96964 77.508528 164.13841 71.673828 174.31641 C 65.009828 185.94041 58.261812 197.51847 51.757812 209.23047 C 49.189464 213.85549 49.323704 216.77688 52.248047 219.17773 C 52.537051 219.51756 52.852325 219.85328 53.240234 220.17188 C 53.530131 220.51317 53.848668 220.8481 54.238281 221.16797 C 54.527285 221.50779 54.842559 221.84353 55.230469 222.16211 C 55.520365 222.5034 55.8389 222.83833 56.228516 223.1582 C 56.51752 223.49803 56.832794 223.83376 57.220703 224.15234 C 57.511487 224.49459 57.829612 224.83163 58.220703 225.15234 C 58.50785 225.48951 58.820496 225.82242 59.205078 226.13867 C 59.49671 226.48253 59.81811 226.82045 60.210938 227.14258 C 60.499684 227.48163 60.815853 227.8149 61.203125 228.13281 C 61.492129 228.47259 61.807406 228.80841 62.195312 229.12695 C 62.485209 229.4682 62.803743 229.80321 63.193359 230.12305 C 63.482363 230.46283 63.797637 230.79864 64.185547 231.11719 C 64.475443 231.45843 64.793978 231.79345 65.183594 232.11328 C 65.472594 232.45306 65.787877 232.78888 66.175781 233.10742 C 66.465679 233.44867 66.784212 233.78368 67.173828 234.10352 C 67.462832 234.44329 67.778106 234.77911 68.166016 235.09766 C 68.455464 235.43829 68.77134 235.77251 69.160156 236.0918 C 69.450049 236.43304 69.768593 236.76806 70.158203 237.08789 C 70.447208 237.42767 70.762481 237.76349 71.150391 238.08203 C 71.440287 238.42328 71.758821 238.75829 72.148438 239.07812 C 72.437442 239.4179 72.752716 239.75372 73.140625 240.07227 C 73.430518 240.41351 73.749061 240.74853 74.138672 241.06836 C 74.427677 241.40814 74.742949 241.74395 75.130859 242.0625 C 75.420756 242.40375 75.73929 242.73876 76.128906 243.05859 C 76.418403 243.39895 76.734306 243.73563 77.123047 244.05469 C 77.411221 244.39358 77.726728 244.7252 78.113281 245.04297 C 78.404211 245.38586 78.723665 245.72364 79.115234 246.04492 C 79.403981 246.38421 79.718085 246.719 80.105469 247.03711 C 80.395365 247.37836 80.7139 247.71337 81.103516 248.0332 C 81.392516 248.37298 81.707799 248.70882 82.095703 249.02734 C 82.384329 249.36714 82.700421 249.70098 83.087891 250.01953 C 83.379312 250.36305 83.699395 250.70161 84.091797 251.02344 C 84.380544 251.36253 84.696715 251.69573 85.083984 252.01367 C 85.372985 252.3535 85.688268 252.68923 86.076172 253.00781 C 86.36607 253.3491 86.684602 253.68404 87.074219 254.00391 C 87.363224 254.34373 87.678496 254.67946 88.066406 254.99805 C 88.356303 255.33934 88.67484 255.67427 89.064453 255.99414 C 89.353454 256.33396 89.668737 256.6697 90.056641 256.98828 C 90.347425 257.33057 90.665546 257.66753 91.056641 257.98828 C 91.345389 258.32738 91.661556 258.66057 92.048828 258.97852 C 92.337832 259.31834 92.653109 259.65407 93.041016 259.97266 C 93.330909 260.31394 93.649452 260.64888 94.039062 260.96875 C 94.328069 261.30856 94.64334 261.64431 95.03125 261.96289 C 95.321148 262.30417 95.63968 262.63912 96.029297 262.95898 C 96.318302 263.29876 96.633577 263.63459 97.021484 263.95312 C 97.311378 264.29438 97.629921 264.62938 98.019531 264.94922 C 98.308532 265.289 98.623815 265.62481 99.011719 265.94336 C 99.302499 266.28561 99.620629 266.62264 100.01172 266.94336 C 100.29919 267.28091 100.61293 267.6131 100.99805 267.92969 C 101.28949 268.27319 101.60951 268.61177 102.00195 268.93359 C 102.29069 269.27264 102.60688 269.60592 102.99414 269.92383 C 103.28314 270.26361 103.59843 270.59942 103.98633 270.91797 C 104.27622 271.25922 104.59476 271.59423 104.98438 271.91406 C 105.27336 272.25384 105.58866 272.58966 105.97656 272.9082 C 106.26645 273.24945 106.585 273.58446 106.97461 273.9043 C 107.2636 274.24408 107.57889 274.57989 107.9668 274.89844 C 108.25757 275.24068 108.57571 275.57772 108.9668 275.89844 C 109.25475 276.23657 109.56913 276.56962 109.95508 276.88672 C 110.24478 277.22784 110.56184 277.56309 110.95117 277.88281 C 111.24106 278.22406 111.55961 278.55907 111.94922 278.87891 C 112.23821 279.21868 112.5535 279.5545 112.94141 279.87305 C 113.23129 280.21429 113.54984 280.54931 113.93945 280.86914 C 114.22845 281.20892 114.54376 281.54474 114.93164 281.86328 C 115.22153 282.20453 115.5401 282.53953 115.92969 282.85938 C 116.21873 283.19914 116.53393 283.53497 116.92188 283.85352 C 116.94005 283.87491 116.96597 283.89468 116.98438 283.91602 A 144 144 0 0 0 143.98047 286.79688 A 144 144 0 0 0 280.66797 187.33594 C 280.38319 187.01938 280.09294 186.72077 279.79297 186.46094 C 279.47129 186.09092 279.13864 185.76072 278.79688 185.46484 C 278.47584 185.09554 278.14378 184.76611 277.80273 184.4707 C 277.48135 184.10099 277.14808 183.77027 276.80664 183.47461 C 276.48583 183.10564 276.15329 182.77566 275.8125 182.48047 C 275.49216 182.11195 275.16059 181.78323 274.82031 181.48828 C 274.49676 181.11579 274.16225 180.78374 273.81836 180.48633 C 273.4995 180.11988 273.17063 179.79164 272.83203 179.49805 C 272.50826 179.12523 272.17227 178.79372 271.82812 178.49609 C 271.50822 178.12845 271.17765 177.80017 270.83789 177.50586 C 270.51651 177.13614 270.18324 176.80543 269.8418 176.50977 C 269.52099 176.14079 269.18845 175.81082 268.84766 175.51562 C 268.52731 175.14711 268.19575 174.81838 267.85547 174.52344 C 267.53357 174.15294 267.19945 173.8216 266.85742 173.52539 C 266.53708 173.15696 266.20551 172.82809 265.86523 172.5332 C 265.54168 172.16079 265.20717 171.8286 264.86328 171.53125 C 264.54439 171.16485 264.2156 170.83653 263.87695 170.54297 C 263.55317 170.17023 263.21721 169.83859 262.87305 169.54102 C 262.55415 169.17462 262.22536 168.84629 261.88672 168.55273 C 261.56427 168.18153 261.22939 167.85134 260.88672 167.55469 C 260.56588 167.18576 260.23342 166.85571 259.89258 166.56055 C 259.57153 166.19131 259.23952 165.85983 258.89844 165.56445 C 258.57572 165.1933 258.24138 164.86293 257.89844 164.56641 C 257.57912 164.19958 257.24927 163.87194 256.91016 163.57812 C 256.58821 163.20763 256.25421 162.87629 255.91211 162.58008 C 255.59208 162.21207 255.26181 161.88252 254.92188 161.58789 C 254.59805 161.21516 254.26218 160.88351 253.91797 160.58594 C 253.59903 160.21954 253.27033 159.89121 252.93164 159.59766 C 252.60914 159.22646 252.27436 158.89626 251.93164 158.59961 C 251.6108 158.23074 251.27834 157.9006 250.9375 157.60547 C 250.6164 157.23623 250.28449 156.90475 249.94336 156.60938 C 249.62226 156.24013 249.2884 155.91061 248.94727 155.61523 C 248.62687 155.2468 248.29543 154.91794 247.95508 154.62305 C 247.63147 154.25063 247.29709 153.91847 246.95312 153.62109 C 246.63419 153.25469 246.30549 152.92639 245.9668 152.63281 C 245.64297 152.26007 245.3071 151.92845 244.96289 151.63086 C 244.64291 151.26326 244.31251 150.93494 243.97266 150.64062 C 243.65122 150.27099 243.31807 149.94016 242.97656 149.64453 C 242.65574 149.27569 242.32324 148.94552 241.98242 148.65039 C 241.66098 148.28071 241.32784 147.94998 240.98633 147.6543 C 240.66546 147.28535 240.33305 146.95537 239.99219 146.66016 C 239.67112 146.2909 239.33914 145.95948 238.99805 145.66406 C 238.6753 145.29288 238.34102 144.96259 237.99805 144.66602 C 237.6774 144.2976 237.34646 143.96864 237.00586 143.67383 C 236.68483 143.30453 236.35276 142.9751 236.01172 142.67969 C 235.69034 142.30997 235.35707 141.97926 235.01562 141.68359 C 234.69482 141.31462 234.36228 140.98465 234.02148 140.68945 C 233.70114 140.32093 233.36957 139.99221 233.0293 139.69727 C 232.70574 139.32477 232.37123 138.99272 232.02734 138.69531 C 231.70848 138.32886 231.37961 138.00062 231.04102 137.70703 C 230.71724 137.33421 230.38125 137.0027 230.03711 136.70508 C 229.71721 136.33743 229.38663 136.00915 229.04688 135.71484 C 228.72549 135.34513 228.39222 135.01441 228.05078 134.71875 C 227.72997 134.34978 227.39743 134.0198 227.05664 133.72461 C 226.7363 133.35609 226.40473 133.02737 226.06445 132.73242 C 225.7409 132.35993 225.40639 132.02788 225.0625 131.73047 C 224.74324 131.36356 224.41326 131.03606 224.07422 130.74219 C 223.75065 130.36969 223.41618 130.03764 223.07227 129.74023 C 222.75337 129.37384 222.42458 129.04551 222.08594 128.75195 C 221.76215 128.37922 221.42619 128.04757 221.08203 127.75 C 220.76314 127.3836 220.43435 127.05528 220.0957 126.76172 C 219.77325 126.39052 219.43837 126.06033 219.0957 125.76367 C 218.77486 125.39475 218.4424 125.06469 218.10156 124.76953 C 217.78051 124.40029 217.4485 124.06881 217.10742 123.77344 C 216.78632 123.4042 216.45246 123.07467 216.11133 122.7793 C 215.79093 122.41086 215.45949 122.082 215.11914 121.78711 C 214.79553 121.4147 214.46115 121.08251 214.11719 120.78516 C 213.79825 120.41876 213.46955 120.09042 213.13086 119.79688 C 212.80703 119.42413 212.47116 119.09249 212.12695 118.79492 C 211.80801 118.42852 211.47932 118.1002 211.14062 117.80664 C 210.81813 117.43544 210.48334 117.10525 210.14062 116.80859 C 209.81978 116.43972 209.48733 116.10958 209.14648 115.81445 C 208.82539 115.44521 208.49347 115.11373 208.15234 114.81836 C 207.83124 114.44912 207.49739 114.11959 207.15625 113.82422 C 206.83585 113.45578 206.50441 113.12694 206.16406 112.83203 C 205.84045 112.45961 205.50607 112.12745 205.16211 111.83008 C 204.84317 111.46367 204.51447 111.13538 204.17578 110.8418 C 203.85195 110.46905 203.51609 110.13744 203.17188 109.83984 C 202.85294 109.47344 202.52424 109.14514 202.18555 108.85156 C 201.86305 108.48031 201.52827 108.15024 201.18555 107.85352 C 200.86473 107.48462 200.53222 107.15454 200.19141 106.85938 C 199.86997 106.48968 199.53682 106.15896 199.19531 105.86328 C 198.87445 105.49434 198.54203 105.16435 198.20117 104.86914 C 197.88011 104.49989 197.54812 104.16847 197.20703 103.87305 C 196.88428 103.50187 196.55 103.17157 196.20703 102.875 C 195.88705 102.50732 195.55665 102.17715 195.2168 101.88281 C 194.89405 101.51162 194.55977 101.1813 194.2168 100.88477 C 193.89754 100.51788 193.56755 100.19035 193.22852 99.896484 C 192.90662 99.525929 192.5725 99.194693 192.23047 98.898438 C 191.91012 98.52994 191.57856 98.201189 191.23828 97.90625 C 190.91473 97.533795 190.58022 97.20169 190.23633 96.904297 C 189.91643 96.536692 189.58585 96.208357 189.24609 95.914062 C 188.92338 95.542851 188.58902 95.210628 188.24609 94.914062 C 187.92619 94.546458 187.59562 94.218122 187.25586 93.923828 C 186.93448 93.554153 186.6012 93.22338 186.25977 92.927734 C 185.93896 92.5588 185.60643 92.228771 185.26562 91.933594 C 184.94528 91.56511 184.61371 91.236335 184.27344 90.941406 C 183.95154 90.570864 183.61744 90.239608 183.27539 89.943359 C 182.95504 89.57488 182.6235 89.2461 182.2832 88.951172 C 181.95964 88.578717 181.62516 88.246612 181.28125 87.949219 C 180.96236 87.582772 180.63357 87.254535 180.29492 86.960938 C 179.97114 86.588147 179.63518 86.2566 179.29102 85.958984 C 178.9711 85.59138 178.64056 85.263044 178.30078 84.96875 C 177.97939 84.599075 177.64615 84.268302 177.30469 83.972656 C 176.98387 83.603718 176.65136 83.273693 176.31055 82.978516 C 175.98915 82.608832 175.65591 82.278074 175.31445 81.982422 C 174.99359 81.613488 174.66118 81.283458 174.32031 80.988281 C 173.99991 80.619802 173.66848 80.291022 173.32812 79.996094 C 173.00451 79.623634 172.67013 79.291534 172.32617 78.994141 C 172.00723 78.627689 171.67854 78.299462 171.33984 78.005859 C 171.01601 77.633069 170.68015 77.301521 170.33594 77.003906 C 170.01596 76.636268 169.68556 76.307988 169.3457 76.013672 C 169.02426 75.643996 168.69112 75.313226 168.34961 75.017578 C 168.02879 74.648686 167.69628 74.318589 167.35547 74.023438 C 167.03403 73.653752 166.70089 73.322995 166.35938 73.027344 C 166.03851 72.65841 165.7061 72.32838 165.36523 72.033203 C 165.04521 71.665152 164.71493 71.335688 164.375 71.041016 C 164.05117 70.668226 163.7153 70.336678 163.37109 70.039062 C 163.05215 69.672612 162.72346 69.344384 162.38477 69.050781 C 162.06094 68.677991 161.72507 68.346443 161.38086 68.048828 C 161.06192 67.682384 160.73322 67.354146 160.39453 67.060547 C 160.07203 66.689291 159.73725 66.359198 159.39453 66.0625 C 159.07371 65.693608 158.7412 65.363512 158.40039 65.068359 C 158.07895 64.698675 157.74581 64.367917 157.4043 64.072266 C 157.08343 63.703322 156.75102 63.37331 156.41016 63.078125 C 156.08909 62.70887 155.75711 62.377425 155.41602 62.082031 C 155.09327 61.71085 154.75899 61.38053 154.41602 61.083984 C 154.09708 60.717533 153.76838 60.389306 153.42969 60.095703 C 153.10586 59.722912 152.76999 59.391368 152.42578 59.09375 C 152.10647 58.726869 151.77661 58.39933 151.4375 58.105469 C 151.11561 57.734918 150.78148 57.403676 150.43945 57.107422 C 148.80814 55.23094 146.89324 54.302691 144.9707 54.326172 z " />
  <path
     id="path1208"
     d="M 143.97461 53.332031 C 141.44436 53.362906 138.90686 55.0305 137.00586 58.3125 C 134.58486 62.4915 132.05348 66.605969 129.64648 70.792969 C 123.06448 82.241969 116.54398 93.727781 109.95898 105.17578 C 102.73598 117.73378 95.459656 130.26055 88.222656 142.81055 A 13756.536 13756.536 0 0 0 70.679688 173.32227 C 64.015688 184.94627 57.267672 196.52433 50.763672 208.23633 C 47.415672 214.26533 48.611875 217.40672 54.671875 220.26172 C 105.15987 220.28972 155.64872 220.3207 206.13672 220.3457 C 214.43572 220.3497 222.73225 220.33331 231.03125 220.32031 C 236.41925 220.31231 241.54145 216.38494 237.68945 209.21094 C 232.27745 199.12994 226.48455 189.25245 220.81055 179.31445 C 214.30655 167.92045 207.7658 156.54673 201.2168 145.17773 C 193.9778 132.60773 186.71103 120.05323 179.45703 107.49023 C 173.04503 96.382234 166.61128 85.284344 160.23828 74.152344 C 157.35728 69.118344 154.60111 64.0115 151.78711 58.9375 C 151.48511 58.6855 151.08144 58.492875 150.89844 58.171875 C 149.02644 54.907375 146.50486 53.301156 143.97461 53.332031 z M 143.96094 90.167969 C 144.35894 90.143469 144.77289 90.600297 145.33789 91.591797 A 15113.07 15113.07 0 0 0 176.44531 145.92383 C 186.35331 163.16083 196.30447 180.37166 206.23047 197.59766 C 206.36547 197.83366 206.43361 198.11092 206.59961 198.54492 L 81.292969 198.54492 C 85.240969 191.60692 89.040297 184.86034 92.904297 178.15234 C 100.0783 165.69934 107.29833 153.27313 114.48633 140.82812 A 25762.04 25762.04 0 0 0 136.46484 102.70703 C 138.57684 99.037031 140.69459 95.369813 142.68359 91.632812 C 143.18059 90.698313 143.56294 90.192469 143.96094 90.167969 z "
     style="fill:#d3d388;fill-opacity:1;stroke:#d3d388;stroke-opacity:1" />
</svg>
