<?xml version="1.0" encoding="UTF-8" standalone="no"?>
<!-- Created with Inkscape (http://www.inkscape.org/) -->

<svg
   width="900"
   height="650"
   viewBox="0 0 238.12501 171.97917"
   version="1.1"
   id="svg5"
   inkscape:version="1.1 (c68e22c387, 2021-05-23)"
   sodipodi:docname="territory.svg"
   inkscape:export-ydpi="96"
   inkscape:export-xdpi="96"
   inkscape:export-filename="D:\OneDrive - Universidad de Córdoba\github-website\dyn-gos.github.io\assets\img\portfolio\territory.png"
   xmlns:inkscape="http://www.inkscape.org/namespaces/inkscape"
   xmlns:sodipodi="http://sodipodi.sourceforge.net/DTD/sodipodi-0.dtd"
   xmlns="http://www.w3.org/2000/svg"
   xmlns:svg="http://www.w3.org/2000/svg">
  <sodipodi:namedview
     id="namedview7"
     pagecolor="#ffffff"
     bordercolor="#666666"
     borderopacity="1.0"
     inkscape:pageshadow="2"
     inkscape:pageopacity="0.0"
     inkscape:pagecheckerboard="0"
     inkscape:document-units="mm"
     showgrid="false"
     inkscape:zoom="0.52412698"
     inkscape:cx="671.59297"
     inkscape:cy="497.01696"
     inkscape:window-width="1920"
     inkscape:window-height="1017"
     inkscape:window-x="-8"
     inkscape:window-y="-8"
     inkscape:window-maximized="1"
     inkscape:current-layer="layer1"
     width="900mm"
     units="px" />
  <defs
     id="defs2">
    <rect
       x="32.434888"
       y="490.33919"
       width="547.57723"
       height="143.09509"
       id="rect3948" />
  </defs>
  <g
     inkscape:label="Capa 1"
     inkscape:groupmode="layer"
     id="layer1">
    <rect
       style="fill:#c6cf5b;fill-opacity:1;stroke-width:0.264583"
       id="rect7546"
       width="268.05289"
       height="203.94229"
       x="-11.105769"
       y="-10.096153"
       ry="12.137019" />
    <path
       id="path12511"
       style="fill:#9ea831;fill-rule:evenodd;stroke-width:1.44387px;fill-opacity:1"
       d="M 312.62891 125.78516 L 244.21875 165.2793 L 244.21875 244.27148 L 175.81055 283.76953 L 175.81055 362.76172 L 175.81836 362.76562 L 175.81836 362.76953 L 175.83398 362.7793 L 175.83398 362.78516 L 175.85547 362.79688 L 175.85547 362.80664 L 175.88086 362.82227 L 175.88086 362.83398 L 175.91602 362.85352 L 175.91602 362.86719 L 175.95312 362.88867 L 175.95312 362.90625 L 176 362.93359 L 176 362.95117 L 176.05078 362.98047 L 176.05078 363.00195 L 176.10742 363.03516 L 176.10742 363.05859 L 176.17188 363.0957 L 176.17188 363.12305 L 176.24023 363.16211 L 176.24023 363.19141 L 176.31641 363.23633 L 176.31641 363.26758 L 176.39648 363.31445 L 176.39648 363.34766 L 176.48438 363.39844 L 176.48438 363.43555 L 176.57812 363.49023 L 176.57812 363.5293 L 176.67773 363.58594 L 176.67773 363.62891 L 176.7832 363.68945 L 176.7832 363.73438 L 176.89453 363.79883 L 176.89453 363.8457 L 177.01172 363.91406 L 177.01172 363.96289 L 177.13477 364.0332 L 177.13477 364.08594 L 177.26367 364.16016 L 177.26367 364.21484 L 177.40039 364.29297 L 177.40039 364.35156 L 177.54102 364.43359 L 177.54102 364.49219 L 177.68945 364.57812 L 177.68945 364.64062 L 177.8418 364.72852 L 177.8418 364.79297 L 178.00195 364.88477 L 178.00195 364.95312 L 178.16797 365.04883 L 178.16797 365.11914 L 178.33984 365.21875 L 178.33984 365.29102 L 178.51758 365.39453 L 178.51758 365.46875 L 178.70117 365.57422 L 178.70117 365.65234 L 178.89062 365.76172 L 178.89062 365.8418 L 179.08594 365.95508 L 179.08594 366.03711 L 179.28711 366.15234 L 179.28711 366.23828 L 179.49609 366.35938 L 179.49609 366.44727 L 179.70898 366.57031 L 179.70898 366.66016 L 179.92969 366.78711 L 179.92969 366.88086 L 180.15625 367.01172 L 180.15625 367.10742 L 180.38672 367.24023 L 180.38672 367.33789 L 180.625 367.47461 L 180.625 367.57617 L 180.86914 367.7168 L 180.86914 367.82031 L 181.11914 367.96484 L 181.11914 368.07031 L 181.375 368.21875 L 181.375 368.32617 L 181.63672 368.47656 L 181.63672 368.58789 L 181.9043 368.74219 L 181.9043 368.85547 L 182.17969 369.01367 L 182.17969 369.13086 L 182.45898 369.29297 L 182.45898 369.41016 L 182.74414 369.57422 L 182.74414 369.69727 L 183.03711 369.86719 L 183.03711 369.98828 L 183.33594 370.16016 L 183.33594 370.28711 L 183.64062 370.46289 L 183.64062 370.5918 L 183.94922 370.76953 L 183.94922 370.90039 L 184.26562 371.08398 L 184.26562 371.2168 L 184.58789 371.40234 L 184.58789 371.53906 L 184.91602 371.72852 L 184.91602 371.86719 L 185.25 372.06055 L 185.25 372.20312 L 185.5918 372.40039 L 185.5918 372.54297 L 185.9375 372.74219 L 185.9375 372.88867 L 186.28906 373.0918 L 186.28906 373.24023 L 186.64844 373.44727 L 186.64844 373.59961 L 187.01172 373.80859 L 187.01172 373.96289 L 187.38281 374.17773 L 187.38281 374.33398 L 187.75977 374.55078 L 187.75977 374.71094 L 188.14258 374.93164 L 188.14258 375.09375 L 188.53125 375.31836 L 188.53125 375.48242 L 188.92578 375.71094 L 188.92578 375.87695 L 189.32617 376.10742 L 189.32617 376.27734 L 189.73242 376.51172 L 189.73242 376.68359 L 190.14453 376.92188 L 190.14453 377.0957 L 190.5625 377.33789 L 190.5625 377.51562 L 190.98828 377.76172 L 190.98828 377.93945 L 191.41797 378.1875 L 191.41797 378.36914 L 191.85547 378.62109 L 191.85547 378.80664 L 192.29688 379.06055 L 192.29688 379.25 L 192.74609 379.50977 L 192.74609 379.69922 L 193.20117 379.96289 L 193.20117 380.15234 L 193.66211 380.41797 L 193.66211 380.61328 L 194.12891 380.88281 L 194.12891 381.07812 L 194.60156 381.35156 L 194.60156 381.55469 L 195.08008 381.83008 L 195.08008 382.03125 L 195.56641 382.3125 L 195.56641 382.51758 L 196.05664 382.80078 L 196.05664 383.00586 L 196.55273 383.29297 L 196.55273 383.50391 L 197.05664 383.79492 L 197.05664 384.00781 L 197.56445 384.30078 L 197.56445 384.51758 L 198.08008 384.81445 L 198.08008 385.03125 L 198.60156 385.33203 L 198.60156 385.55273 L 199.12891 385.85742 L 199.12891 386.07812 L 199.66016 386.38477 L 199.66016 386.61133 L 200.20117 386.92383 L 200.20117 387.15234 L 200.74609 387.4668 L 200.74609 387.69727 L 201.29688 388.01562 L 201.29688 388.24805 L 201.85352 388.57031 L 201.85352 388.80469 L 202.41602 389.12891 L 202.41602 389.36719 L 202.98633 389.69727 L 202.98633 389.9375 L 203.56055 390.26953 L 203.56055 390.51172 L 204.14258 390.84766 L 204.14258 391.09375 L 204.73047 391.43359 L 204.73047 391.67969 L 205.32227 392.02148 L 205.32227 392.27344 L 205.92188 392.61914 L 205.92188 392.875 L 206.52734 393.22461 L 206.52734 393.47852 L 207.13867 393.83203 L 207.13867 394.0918 L 207.75586 394.44727 L 207.75586 394.70703 L 208.37891 395.06641 L 208.37891 395.33008 L 209.00977 395.69336 L 209.00977 395.96289 L 209.64453 396.33008 L 209.64453 396.59766 L 210.28516 396.9668 L 210.28516 397.23633 L 210.93359 397.61133 L 210.93359 397.88672 L 211.58789 398.26367 L 211.58789 398.53906 L 212.24609 398.91992 L 212.24609 399.19727 L 212.91211 399.58203 L 212.91211 399.86328 L 213.58398 400.25195 L 213.58398 400.53516 L 214.26172 400.92578 L 214.26172 401.21289 L 214.94531 401.60742 L 214.94531 401.89648 L 215.63477 402.29492 L 215.63477 402.58789 L 216.33008 402.99023 L 216.33008 403.2832 L 217.03125 403.6875 L 217.03125 403.98242 L 217.74023 404.39258 L 217.74023 404.68945 L 218.45312 405.10156 L 218.45312 405.4043 L 219.17383 405.82031 L 219.17383 406.125 L 219.89844 406.54297 L 219.89844 406.85156 L 220.63086 407.27539 L 220.63086 407.58008 L 221.36914 408.00586 L 221.36914 408.32031 L 222.11133 408.74805 L 222.11133 409.0625 L 222.86328 409.49609 L 222.86328 409.81445 L 223.61719 410.25 L 223.61719 410.57031 L 224.38086 411.01172 L 224.38086 411.33008 L 225.14844 411.77344 L 225.14844 412.10156 L 225.92188 412.54883 L 225.92188 412.87109 L 226.70117 413.32031 L 226.70117 413.6543 L 227.48828 414.10938 L 227.48828 414.43945 L 228.2793 414.89648 L 228.2793 415.23047 L 229.07812 415.69141 L 229.07812 416.02734 L 229.88281 416.49219 L 229.88281 416.83203 L 230.69336 417.30078 L 230.69336 417.64453 L 231.50781 418.11523 L 231.50781 418.45703 L 232.33008 418.93164 L 232.33008 419.28125 L 233.1582 419.75977 L 233.1582 420.10938 L 233.99414 420.5918 L 233.99414 420.94531 L 234.83398 421.42969 L 234.83398 421.7832 L 235.67969 422.27148 L 235.67969 422.63086 L 236.53125 423.12305 L 236.53125 423.48438 L 237.39062 423.98047 L 237.39062 424.3418 L 238.25391 424.83984 L 238.25391 425.20508 L 239.125 425.70898 L 239.125 426.07812 L 240.00195 426.58398 L 240.00195 426.95117 L 240.88281 427.45898 L 240.88281 427.83398 L 241.77148 428.34766 L 241.77148 428.72266 L 242.66602 429.23828 L 242.66602 429.61914 L 243.56641 430.13867 L 243.56641 430.51758 L 244.47266 431.04102 L 244.47266 431.42578 L 245.38672 431.95312 L 245.38672 432.33594 L 246.30469 432.86523 L 246.30469 433.25391 L 247.22852 433.78711 L 247.22852 434.18164 L 248.16016 434.71875 L 248.16016 435.11133 L 249.0957 435.65234 L 249.0957 436.04883 L 250.03906 436.59375 L 250.03906 436.98828 L 250.98828 437.53711 L 250.98828 437.9375 L 251.94141 438.48828 L 251.94141 438.89453 L 252.90234 439.44922 L 252.90234 439.85352 L 253.86914 440.41211 L 253.86914 440.82227 L 254.8418 441.38477 L 254.8418 441.79297 L 255.82031 442.35742 L 255.82031 442.77148 L 256.80664 443.3418 L 256.80664 443.75781 L 257.79688 444.33008 L 257.79688 444.74805 L 258.79297 445.32227 L 258.79297 445.74609 L 259.79688 446.32617 L 259.79688 446.74805 L 260.80469 447.33008 L 260.80469 447.75781 L 261.82031 448.34375 L 261.82031 448.76953 L 262.83984 449.35742 L 262.83984 449.79102 L 263.86719 450.38477 L 263.86719 450.81836 L 264.90039 451.41406 L 264.90039 451.85352 L 265.93945 452.45312 L 265.93945 452.88867 L 266.98438 453.49219 L 266.98438 453.93555 L 268.03516 454.54297 L 268.03516 454.98633 L 269.09375 455.59766 L 269.09375 456.04492 L 270.15625 456.6582 L 270.15625 457.10742 L 271.22461 457.72461 L 271.22461 458.17773 L 272.30078 458.79883 L 272.30078 459.25 L 273.38086 459.87305 L 273.38086 460.33203 L 274.46875 460.96094 L 274.46875 461.41992 L 275.5625 462.05078 L 275.5625 462.51172 L 276.66016 463.14453 L 276.66016 463.61133 L 277.76562 464.25 L 277.76562 464.71484 L 278.87695 465.35742 L 278.87695 465.83008 L 279.99414 466.47461 L 279.99414 466.94531 L 281.11719 467.59375 L 281.11719 468.06836 L 282.24805 468.7207 L 282.24805 469.19727 L 283.38281 469.85156 L 283.38281 470.33594 L 284.52344 470.99414 L 284.52344 471.47656 L 285.67188 472.13867 L 285.67188 472.62305 L 286.82422 473.28906 L 286.82422 473.77539 L 287.98438 474.44531 L 287.98438 474.93555 L 289.15039 475.60938 L 289.15039 476.09961 L 290.32227 476.77539 L 290.32227 477.27148 L 291.49805 477.95117 L 291.49805 478.45117 L 292.68164 479.13477 L 292.68164 479.63281 L 293.87109 480.32031 L 293.87109 480.82422 L 295.06836 481.51562 L 295.06836 482.01758 L 296.26953 482.71094 L 296.26953 483.2207 L 297.47656 483.91797 L 297.47656 484.42969 L 298.68945 485.13086 L 298.68945 485.64258 L 299.91016 486.34766 L 299.91016 486.85938 L 301.13672 487.56836 L 301.13672 488.08789 L 302.36719 488.79883 L 302.36719 489.32031 L 303.60547 490.03516 L 303.60547 490.55664 L 304.84961 491.27539 L 304.84961 491.79883 L 306.09961 492.52148 L 306.09961 493.05078 L 307.35547 493.77539 L 307.35547 494.30469 L 308.61719 495.0332 L 308.61719 495.56836 L 309.88477 496.30078 L 309.88477 496.83398 L 311.1582 497.56836 L 311.1582 498.11133 L 312.4375 498.84961 L 312.4375 499.38867 L 313.72461 500.13086 L 313.72461 500.67383 L 315.01562 501.41992 L 315.01562 501.9668 L 316.31445 502.7168 L 316.31445 503.26758 L 317.61914 504.02148 L 317.61914 504.57031 L 318.92773 505.32617 L 318.92773 505.87891 L 320.24414 506.63867 L 320.24414 507.19336 L 321.56641 507.95703 L 321.56641 508.51562 L 322.89453 509.2832 L 322.89453 509.84766 L 324.22852 510.61719 L 324.22852 511.18164 L 325.56836 511.95508 L 325.56836 512.51953 L 326.91406 513.29688 L 326.91406 513.86523 L 328.26758 514.64648 L 328.26758 515.2168 L 329.625 516 L 329.625 516.57812 L 330.99023 517.36719 L 330.99023 517.93945 L 332.35938 518.73047 L 332.35938 519.31055 L 333.73633 520.10547 L 333.73633 520.6875 L 335.11914 521.48633 L 335.11914 522.07031 L 336.50586 522.87109 L 336.50586 523.45703 L 337.90039 524.26172 L 337.90039 524.85156 L 339.30078 525.66016 L 339.30078 526.25391 L 340.70703 527.06641 L 340.70703 527.66016 L 342.12109 528.47656 L 342.12109 529.07422 L 343.53906 529.89258 L 343.53906 530.49023 L 344.96289 531.3125 L 344.96289 531.91602 L 346.39453 532.74219 L 346.39453 533.34375 L 347.83008 534.17188 L 347.83008 534.78125 L 349.27344 535.61523 L 349.27344 536.22461 L 350.7207 537.06055 L 350.7207 537.67188 L 352.17578 538.51172 L 352.17578 539.12695 L 353.63672 539.9707 L 353.63672 540.58984 L 355.10352 541.4375 L 355.10352 542.05664 L 356.57617 542.90625 L 356.57617 543.52539 L 358.05469 544.37891 L 358.05469 545.00391 L 359.53906 545.86133 L 359.53906 546.49023 L 361.0293 547.35156 L 361.0293 547.98242 L 362.52734 548.84766 L 362.52734 549.47852 L 364.0293 550.3457 L 364.0293 550.98047 L 365.53906 551.85156 L 365.53906 552.48828 L 367.05273 553.36133 L 367.05273 554.00391 L 368.57422 554.88281 L 368.57422 555.52539 L 370.10156 556.4082 L 370.10156 557.05273 L 371.63281 557.9375 L 371.63281 558.58398 L 373.17188 559.47266 L 373.17188 560.12305 L 374.7168 561.01562 L 374.7168 561.66797 L 376.26758 562.5625 L 376.26758 563.2207 L 377.82617 564.12109 L 377.82617 564.77539 L 379.38867 565.67773 L 379.38867 566.33984 L 380.95703 567.24609 L 380.95703 567.9082 L 382.5332 568.81836 L 382.5332 569.48438 L 384.11328 570.39648 L 384.11328 571.06445 L 385.70117 571.98047 L 385.70117 572.65039 L 387.29102 573.56836 L 387.29102 574.24609 L 388.89453 575.17188 L 388.89453 575.8457 L 390.49609 576.76953 L 390.49609 577.44727 L 392.11133 578.38086 L 392.11133 579.06055 L 393.72461 579.99219 L 393.72461 580.67969 L 395.34961 581.61719 L 395.34961 582.30078 L 396.97852 583.24219 L 396.97852 583.92969 L 398.61523 584.875 L 398.61523 585.56641 L 400.25586 586.51367 L 400.25586 587.20703 L 401.9043 588.1582 L 401.9043 588.85352 L 403.55469 589.80664 L 403.55469 590.50586 L 405.21484 591.46484 L 405.21484 592.16602 L 406.88086 593.12891 L 406.88086 593.83203 L 408.55273 594.79688 L 408.55273 595.50195 L 410.23047 596.4707 L 410.23047 597.17969 L 411.91211 598.15039 L 411.91211 598.86523 L 413.60156 599.83984 L 413.60156 600.55469 L 415.29883 601.53516 L 415.29883 602.24805 L 417 603.23047 L 417 603.94922 L 418.70703 604.93555 L 418.70703 605.6582 L 420.41992 606.64648 L 420.41992 607.37305 L 422.13867 608.36523 L 422.13867 609.09375 L 423.86719 610.0918 L 423.86719 610.81641 L 425.59766 611.81641 L 425.59766 612.54883 L 427.33594 613.55273 L 427.33594 614.28711 L 429.07812 615.29297 L 429.07812 616.0293 L 430.82812 617.03906 L 430.82812 617.7793 L 432.58594 618.79492 L 432.58594 619.53711 L 434.34766 620.55469 L 434.34766 621.29688 L 436.11523 622.31836 L 436.11523 623.06641 L 437.88867 624.08984 L 437.88867 624.83984 L 439.66797 625.86719 L 439.66797 626.61914 L 441.45312 627.65039 L 441.45312 628.40234 L 443.24414 629.43555 L 443.24414 630.19922 L 445.04297 631.23828 L 445.04297 631.99414 L 446.8457 633.03516 L 446.8457 633.80078 L 448.65625 634.8457 L 448.65625 635.60742 L 450.47461 636.6582 L 450.47461 637.42578 L 452.29688 638.47852 L 452.29688 639.24609 L 454.12109 640.29883 L 454.12109 641.07617 L 455.95898 642.13672 L 455.95898 642.9082 L 457.79883 643.9707 L 457.79883 644.75 L 459.64258 645.81445 L 459.64258 646.59375 L 461.49609 647.66406 L 461.49609 648.44531 L 463.35547 649.51953 L 463.35547 650.30469 L 465.21875 651.38086 L 465.21875 652.16797 L 467.08984 653.24805 L 467.08984 654.03906 L 468.96289 655.12109 L 468.96289 655.91406 L 470.8457 657.00195 L 470.8457 657.79688 L 472.73633 658.88867 L 472.73633 659.68555 L 474.62891 660.77734 L 474.62891 661.58008 L 476.53125 662.67773 L 476.53125 663.48047 L 478.43555 664.58008 L 478.43555 665.38672 L 480.34766 666.49023 L 480.34766 667.29883 L 482.26758 668.4082 L 482.26758 669.21875 L 484.19141 670.33008 L 484.19141 671.14258 L 486.12305 672.25781 L 486.12305 673.07422 L 488.05859 674.19141 L 488.05859 675.00781 L 490 676.12891 L 490 676.95117 L 491.94727 678.07617 L 491.94727 678.90234 L 493.9043 680.03125 L 493.9043 680.85547 L 495.86328 681.98633 L 495.86328 682.8125 L 497.83203 683.94922 L 497.83203 684.7832 L 499.80078 685.91992 L 499.80078 686.75586 L 501.78125 687.89844 L 501.78125 688.73242 L 503.76562 689.87891 L 503.76562 690.7168 L 505.75781 691.86719 L 505.75781 692.70898 L 507.75391 693.86133 L 507.75391 694.70312 L 509.75586 695.85938 L 509.75586 696.70703 L 511.76367 697.86719 L 511.76367 698.7168 L 513.77734 699.87891 L 513.77734 700.73242 L 515.79883 701.90039 L 515.79883 702.75 L 517.82617 703.91992 L 517.82617 704.7793 L 519.85938 705.95312 L 519.85938 706.80859 L 521.90039 707.98633 L 521.90039 708.84961 L 523.94531 710.03125 L 523.94531 710.89453 L 525.99219 712.07617 L 525.99219 712.94727 L 528.05273 714.13672 L 528.05273 715.00391 L 530.11328 716.19336 L 530.11328 717.06641 L 532.18359 718.26172 L 532.18359 719.13477 L 534.25977 720.33398 L 534.25977 721.20898 L 536.33789 722.4082 L 536.33789 723.29102 L 538.42773 724.49805 L 538.42773 725.37891 L 540.51758 726.58594 L 540.51758 727.47266 L 542.61914 728.68555 L 542.61914 729.57031 L 544.72461 730.78516 L 544.72461 731.67578 L 546.83398 732.89453 L 546.83398 733.7832 L 548.94922 735.00391 L 548.94922 735.9043 L 551.07422 737.13086 L 551.07422 738.02539 L 553.20117 739.25391 L 553.20117 740.15625 L 555.33789 741.39062 L 555.33789 742.29102 L 557.48047 743.52734 L 557.48047 744.43164 L 559.62695 745.66992 L 559.62695 746.57812 L 561.78125 747.82227 L 561.78125 748.73242 L 563.93945 749.97852 L 563.93945 750.89062 L 566.10547 752.14062 L 566.10547 753.05664 L 568.2793 754.3125 L 568.2793 755.22852 L 570.45508 756.48438 L 570.45508 757.40625 L 572.63672 758.66602 L 572.63672 759.58594 L 574.82812 760.85156 L 574.82812 761.7793 L 577.01953 763.04492 L 577.01953 763.97461 L 579.22461 765.24805 L 579.22461 766.17383 L 581.43164 767.44727 L 581.43164 768.38086 L 583.64648 769.66016 L 583.64648 770.5957 L 585.86523 771.87695 L 585.86523 772.81445 L 588.08984 774.09961 L 588.08984 775.04102 L 590.32031 776.32812 L 590.32031 777.27148 L 592.55859 778.56445 L 592.55859 779.50781 L 594.80273 780.80273 L 594.80273 781.75391 L 597.05273 783.05273 L 597.05273 784.00195 L 599.30859 785.30469 L 599.30859 786.25977 L 601.56836 787.56445 L 601.56836 788.51953 L 603.83594 789.82812 L 603.83594 790.78711 L 606.11133 792.10156 L 606.11133 793.0625 L 608.39062 794.37891 L 608.39062 795.3418 L 610.67773 796.66211 L 610.67773 797.62695 L 612.9668 798.94922 L 612.9668 799.91797 L 615.26562 801.24609 L 615.26562 802.2168 L 617.57031 803.54688 L 617.57031 804.52148 L 619.88086 805.85547 L 619.88086 806.83008 L 622.19727 808.16797 L 622.19727 809.14844 L 624.51758 810.48828 L 624.51758 811.46875 L 626.8457 812.8125 L 626.8457 813.79688 L 629.17773 815.14258 L 629.17773 816.13281 L 631.52148 817.48633 L 631.52148 818.47266 L 633.86523 819.82617 L 633.86523 820.81445 L 636.21875 822.17383 L 636.21875 823.16992 L 638.57422 824.5293 L 638.57422 825.52734 L 640.93945 826.89258 L 640.93945 827.89062 L 643.31055 829.25977 L 643.31055 830.25977 L 645.6875 831.63281 L 645.6875 832.63672 L 648.06836 834.01172 L 648.06836 835.01953 L 650.45703 836.39844 L 650.45703 837.4082 L 652.84961 838.78906 L 652.84961 839.80273 L 655.25 841.18945 L 655.25 842.20312 L 657.65625 843.5918 L 657.65625 844.60742 L 660.06836 846 L 660.06836 847.01953 L 662.48633 848.41602 L 662.48633 849.4375 L 664.91406 850.83984 L 664.91406 851.86328 L 667.34375 853.26562 L 667.34375 854.29492 L 669.77734 855.69922 L 669.77734 856.72852 L 672.21875 858.13867 L 672.21875 859.17383 L 674.66797 860.58789 L 674.66797 861.61914 L 677.125 863.03711 L 677.125 864.07617 L 679.58594 865.49609 L 679.58594 866.53516 L 682.04883 867.95703 L 682.04883 869 L 684.52148 870.42773 L 684.52148 871.47656 L 687 872.9082 L 687 873.95117 L 689.48828 875.38867 L 689.48828 876.4375 L 691.97461 877.87305 L 691.97461 878.92969 L 694.47266 880.37109 L 694.47266 881.42383 L 696.97461 882.86914 L 696.97461 883.92578 L 699.48438 885.375 L 699.48438 886.43555 L 701.99805 887.88672 L 701.99805 888.94922 L 704.51953 890.4043 L 704.51953 891.46875 L 707.04688 892.92773 L 707.04688 893.99805 L 709.58008 895.46094 L 709.58008 896.53125 L 712.11914 897.99805 L 712.11914 899.07031 L 714.66406 900.53906 L 714.66406 901.61328 L 717.21484 903.08594 L 717.21484 904.16602 L 719.76953 905.64062 L 719.76953 906.7207 L 722.33203 908.19922 L 722.33203 909.2832 L 724.90234 910.76758 L 724.90234 911.85352 L 727.47656 913.33984 L 727.47656 914.42578 L 730.05664 915.91602 L 730.05664 917.00781 L 732.64648 918.50391 L 732.64648 919.59766 L 735.23828 921.09375 L 735.23828 922.18945 L 737.83594 923.68945 L 737.83594 924.78711 L 740.44336 926.29297 L 740.44336 927.39453 L 743.05078 928.90039 L 743.05078 930.00586 L 745.66992 931.51758 L 745.66992 932.62109 L 748.29297 934.13477 L 748.29297 935.24414 L 750.91992 936.76172 L 750.91992 937.875 L 753.55859 939.39844 L 753.55859 940.50977 L 756.19727 942.0332 L 756.19727 943.15039 L 758.8457 944.67969 L 758.8457 945.79688 L 761.5 947.33008 L 761.5 948.44922 L 764.15625 949.98242 L 764.15625 951.11133 L 766.82422 952.65234 L 766.82422 953.77539 L 769.49219 955.31641 L 769.49219 956.44727 L 772.17188 957.99414 L 772.17188 959.12305 L 774.85547 960.67188 L 774.85547 961.80664 L 777.54297 963.35742 L 777.54297 964.49414 L 780.23828 966.05078 L 780.23828 967.19336 L 782.94141 968.75391 L 782.94141 969.89062 L 785.64648 971.45312 L 785.64648 972.60156 L 788.35938 974.16797 L 788.35938 975.31445 L 791.08203 976.88672 L 791.08203 978.03125 L 793.80664 979.60352 L 793.80664 980.75781 L 796.53906 982.33594 L 796.53906 983.49023 L 799.27539 985.07031 L 799.27539 986.22656 L 802.01953 987.81055 L 802.01953 988.9707 L 804.76758 990.55664 L 804.76758 991.7207 L 807.52344 993.3125 L 807.52344 994.47656 L 810.28516 996.07031 L 810.28516 997.23633 L 813.05273 998.83398 L 813.05273 1000.0059 L 815.82617 1001.6074 L 815.82617 1002.7773 L 818.60742 1004.3828 L 818.60742 1005.5586 L 821.39258 1007.166 L 821.39258 1008.3438 L 824.18359 1009.9551 L 824.18359 1011.1367 L 826.98242 1012.752 L 826.98242 1013.9336 L 829.7832 1015.5508 L 829.7832 1016.7383 L 832.5957 1018.3613 L 832.5957 1019.5469 L 835.41211 1021.1738 L 835.41211 1022.3613 L 838.23438 1023.9902 L 838.23438 1025.1855 L 841.0625 1026.8184 L 841.0625 1028.0117 L 843.89648 1029.6484 L 843.89648 1030.8477 L 846.73438 1032.4863 L 846.73438 1033.6855 L 849.58203 1035.3301 L 849.58203 1036.5312 L 852.43164 1038.1758 L 852.43164 1039.3848 L 855.29102 1041.0352 L 855.29102 1042.2422 L 858.15234 1043.8945 L 858.15234 1045.1074 L 861.02539 1046.7656 L 861.02539 1047.9766 L 863.90234 1049.6367 L 863.90234 1050.8516 L 866.78125 1052.5137 L 866.78125 1053.7324 L 869.66992 1055.4004 L 869.66992 1056.623 L 872.56445 1058.2949 L 872.56445 1059.5156 L 875.46289 1061.1895 L 875.46289 1062.418 L 878.36914 1064.0957 L 878.36914 1065.3242 L 881.2832 1067.0059 L 881.2832 1068.2344 L 884.20117 1069.9199 L 884.20117 1071.1523 L 887.12695 1072.8418 L 887.12695 1074.0781 L 890.05664 1075.7695 L 890.05664 1077.0059 L 892.99219 1078.7012 L 892.99219 1079.9434 L 895.93359 1081.6406 L 895.93359 1082.8867 L 898.88086 1084.5879 L 898.88086 1085.8359 L 901.83594 1087.543 L 901.83594 1088.7871 L 904.79688 1090.4961 L 904.79688 1091.75 L 907.76367 1093.4629 L 907.76367 1094.7129 L 910.73828 1096.4297 L 910.73828 1097.6875 L 913.7168 1099.4082 L 913.7168 1100.666 L 916.69727 1102.3867 L 916.69727 1103.6523 L 919.69141 1105.3809 L 919.69141 1106.6426 L 922.68555 1108.3711 L 922.68555 1109.6387 L 925.68945 1111.373 L 925.68945 1112.6406 L 928.69727 1114.377 L 928.69727 1115.6484 L 997.10742 1155.1445 L 1034.3398 1133.6504 L 1035.0117 1134.0371 L 1035.0117 1135.2227 L 1037.8203 1136.8438 L 1037.8203 1138.0352 L 1040.6367 1139.6621 L 1040.6367 1140.8496 L 1043.459 1142.4785 L 1043.459 1143.6699 L 1046.2871 1145.3027 L 1046.2871 1146.4961 L 1049.1211 1148.1328 L 1049.1211 1149.332 L 1051.959 1150.9707 L 1051.959 1152.1738 L 1054.8066 1153.8184 L 1054.8066 1155.0195 L 1057.6602 1156.668 L 1057.6602 1157.8691 L 1060.5156 1159.5176 L 1060.5156 1160.7266 L 1063.3809 1162.3809 L 1063.3809 1163.5918 L 1066.25 1165.248 L 1066.25 1166.4609 L 1069.127 1168.1211 L 1069.127 1169.3359 L 1072.0098 1171 L 1072.0098 1172.2207 L 1074.8984 1173.8887 L 1074.8984 1175.1074 L 1077.793 1176.7793 L 1077.793 1178.0039 L 1080.6914 1179.6777 L 1080.6914 1180.9023 L 1083.5977 1182.5801 L 1083.5977 1183.8086 L 1086.5078 1185.4883 L 1086.5078 1186.7227 L 1089.4297 1188.4102 L 1089.4297 1189.6406 L 1092.3516 1191.3281 L 1092.3516 1192.5625 L 1095.2852 1194.2559 L 1095.2852 1195.4941 L 1098.2168 1197.1875 L 1098.2168 1198.4316 L 1101.1621 1200.1328 L 1101.1621 1201.3711 L 1104.1094 1203.0723 L 1104.1094 1204.3203 L 1107.0645 1206.0273 L 1107.0645 1207.2754 L 1110.0254 1208.9844 L 1110.0254 1210.2344 L 1112.9922 1211.9473 L 1112.9922 1213.2012 L 1115.9629 1214.916 L 1115.9629 1216.1719 L 1118.9414 1217.8906 L 1118.9414 1219.1504 L 1121.9258 1220.873 L 1121.9258 1222.1367 L 1124.916 1223.8633 L 1124.916 1225.127 L 1127.9121 1226.8574 L 1127.9121 1228.123 L 1130.9141 1229.8555 L 1130.9141 1231.1289 L 1133.9219 1232.8652 L 1133.9219 1234.1367 L 1202.332 1273.6328 L 1270.7422 1234.1367 L 1339.1504 1273.6328 L 1407.5605 1234.1367 L 1407.5605 1155.1445 L 1475.9707 1115.6484 L 1475.9707 1036.6562 L 1472.9609 1034.918 L 1472.9609 1033.6484 L 1469.957 1031.9141 L 1469.957 1030.6465 L 1466.9629 1028.918 L 1466.9629 1027.6504 L 1463.9707 1025.9238 L 1463.9707 1024.6602 L 1460.9883 1022.9375 L 1460.9883 1021.6738 L 1458.0098 1019.9551 L 1458.0098 1018.6953 L 1455.0352 1016.9785 L 1455.0352 1015.7207 L 1452.0684 1014.0078 L 1452.0684 1012.7578 L 1449.1094 1011.0488 L 1449.1094 1009.7949 L 1446.1523 1008.0879 L 1446.1523 1006.8438 L 1443.2051 1005.1426 L 1443.2051 1003.8945 L 1440.2637 1002.1973 L 1440.2637 1000.9512 L 1437.3281 999.25586 L 1437.3281 998.01367 L 1434.3984 996.32227 L 1434.3984 995.08594 L 1431.4727 993.39648 L 1431.4727 992.16016 L 1428.5547 990.47461 L 1428.5547 989.24219 L 1425.6406 987.56055 L 1425.6406 986.33203 L 1422.7344 984.6543 L 1422.7344 983.42578 L 1419.8359 981.75195 L 1419.8359 980.52344 L 1416.9414 978.85156 L 1416.9414 977.63086 L 1414.0527 975.96289 L 1414.0527 974.74023 L 1411.1738 973.07812 L 1411.1738 971.85938 L 1408.2969 970.19922 L 1408.2969 968.98438 L 1405.4258 967.32617 L 1405.4258 966.11523 L 1402.5645 964.46289 L 1402.5645 963.25 L 1399.7031 961.59766 L 1399.7031 960.39258 L 1396.8535 958.74805 L 1396.8535 957.53906 L 1394.0078 955.89648 L 1394.0078 954.69336 L 1391.1641 953.05078 L 1391.1641 951.85547 L 1388.334 950.2207 L 1388.334 949.01953 L 1385.5039 947.38477 L 1385.5039 946.19336 L 1382.6836 944.56445 L 1382.6836 943.36914 L 1379.8672 941.74219 L 1379.8672 940.55469 L 1377.0566 938.93164 L 1377.0566 937.74609 L 1374.2559 936.12891 L 1374.2559 934.94141 L 1371.4551 933.32422 L 1371.4551 932.14453 L 1368.666 930.53516 L 1368.666 929.35156 L 1365.8789 927.74219 L 1365.8789 926.56641 L 1363.0977 924.96094 L 1363.0977 923.78516 L 1360.3242 922.18359 L 1360.3242 921.01367 L 1357.5566 919.41602 L 1357.5566 918.24414 L 1354.7949 916.65039 L 1354.7949 915.48438 L 1352.0391 913.89258 L 1352.0391 912.72852 L 1349.291 911.14258 L 1349.291 909.97852 L 1346.5469 908.39453 L 1346.5469 907.23438 L 1343.8105 905.6543 L 1343.8105 904.49805 L 1341.0781 902.91992 L 1341.0781 901.76562 L 1338.3535 900.19336 L 1338.3535 899.03906 L 1335.6328 897.46875 L 1335.6328 896.32227 L 1332.918 894.75391 L 1332.918 893.60938 L 1330.2129 892.04688 L 1330.2129 890.89844 L 1327.5098 889.33789 L 1327.5098 888.20117 L 1324.8145 886.64453 L 1324.8145 885.50195 L 1322.127 883.95117 L 1322.127 882.81445 L 1319.4453 881.26562 L 1319.4453 880.13086 L 1316.7656 878.58398 L 1316.7656 877.45508 L 1314.0918 875.91211 L 1314.0918 874.7832 L 1311.4277 873.24414 L 1311.4277 872.11914 L 1308.7715 870.58594 L 1308.7715 869.45703 L 1306.1172 867.92383 L 1306.1172 866.80469 L 1303.4688 865.27539 L 1303.4688 864.1582 L 1300.8262 862.63281 L 1300.8262 861.51758 L 1298.1914 859.99609 L 1298.1914 858.88281 L 1295.5645 857.36523 L 1295.5645 856.25195 L 1292.9414 854.73828 L 1292.9414 853.62891 L 1290.3223 852.11719 L 1290.3223 851.01367 L 1287.7109 849.50586 L 1287.7109 848.40234 L 1285.1074 846.89844 L 1285.1074 845.79492 L 1282.5078 844.29492 L 1282.5078 843.19727 L 1279.9141 841.69922 L 1279.9141 840.60547 L 1277.3301 839.11328 L 1277.3301 838.01562 L 1274.748 836.52539 L 1274.748 835.43359 L 1272.1738 833.94727 L 1272.1738 832.86133 L 1269.6035 831.37695 L 1269.6035 830.29102 L 1267.041 828.8125 L 1267.041 827.72852 L 1264.4863 826.25391 L 1264.4863 825.17383 L 1261.9355 823.70117 L 1261.9355 822.62109 L 1259.3887 821.15039 L 1259.3887 820.07812 L 1256.8516 818.61328 L 1256.8516 817.53906 L 1254.3203 816.07812 L 1254.3203 815.00586 L 1251.791 813.54492 L 1251.791 812.47656 L 1249.2695 811.02148 L 1249.2695 809.95703 L 1246.7559 808.50586 L 1246.7559 807.44336 L 1244.2461 805.99414 L 1244.2461 804.93359 L 1241.7441 803.48828 L 1241.7441 802.43164 L 1239.2461 800.99023 L 1239.2461 799.9375 L 1236.7559 798.5 L 1236.7559 797.44727 L 1234.2734 796.01367 L 1234.2734 794.95898 L 1231.793 793.52734 L 1231.793 792.48438 L 1229.3223 791.05859 L 1229.3223 790.00781 L 1226.8535 788.58203 L 1226.8535 787.54297 L 1224.3926 786.12305 L 1224.3926 785.08398 L 1221.9395 783.66797 L 1221.9395 782.62695 L 1219.4902 781.21289 L 1219.4902 780.18164 L 1217.0488 778.77148 L 1217.0488 777.73633 L 1214.6113 776.32812 L 1214.6113 775.30273 L 1212.1816 773.90039 L 1212.1816 772.87109 L 1209.7578 771.47266 L 1209.7578 770.44531 L 1207.3398 769.04883 L 1207.3398 768.02734 L 1204.9277 766.63477 L 1204.9277 765.61523 L 1202.5215 764.22656 L 1202.5215 763.21094 L 1200.1211 761.82422 L 1200.1211 760.80664 L 1197.7285 759.42578 L 1197.7285 758.41602 L 1195.3398 757.03711 L 1195.3398 756.02734 L 1192.9551 754.65039 L 1192.9551 753.64453 L 1190.582 752.27539 L 1190.582 751.26758 L 1188.2109 749.89844 L 1188.2109 748.89844 L 1185.8457 747.5332 L 1185.8457 746.53516 L 1183.4863 745.17383 L 1183.4863 744.17773 L 1181.1367 742.82031 L 1181.1367 741.82227 L 1178.7891 740.4668 L 1178.7891 739.48047 L 1176.4492 738.12891 L 1176.4492 737.14062 L 1174.1172 735.79492 L 1174.1172 734.80469 L 1171.7891 733.46094 L 1171.7891 732.47656 L 1169.4648 731.13477 L 1169.4648 730.15625 L 1167.1523 728.82031 L 1167.1523 727.83789 L 1164.8398 726.50195 L 1164.8398 725.5293 L 1162.5371 724.19922 L 1162.5371 723.22461 L 1160.2402 721.89844 L 1160.2402 720.92578 L 1157.9492 719.60352 L 1157.9492 718.63477 L 1155.6621 717.31445 L 1155.6621 716.34961 L 1153.3828 715.0332 L 1153.3828 714.07031 L 1151.1074 712.75586 L 1151.1074 711.79492 L 1148.8398 710.48633 L 1148.8398 709.52734 L 1146.5801 708.22266 L 1146.5801 707.26758 L 1144.3242 705.96484 L 1144.3242 705.00977 L 1142.0742 703.71094 L 1142.0742 702.76172 L 1139.8301 701.4668 L 1139.8301 700.51562 L 1137.5918 699.22266 L 1137.5918 698.2793 L 1135.3594 696.99023 L 1135.3594 696.04883 L 1133.1367 694.76562 L 1133.1367 693.82227 L 1130.9141 692.53906 L 1130.9141 691.60352 L 1128.7031 690.32617 L 1128.7031 689.38867 L 1126.4961 688.11523 L 1126.4961 687.18164 L 1124.293 685.91016 L 1124.293 684.98242 L 1122.0957 683.71289 L 1122.0957 682.78711 L 1119.9082 681.52344 L 1119.9082 680.59375 L 1117.7227 679.33203 L 1117.7227 678.41406 L 1115.5469 677.1582 L 1115.5469 676.23633 L 1113.377 674.98438 L 1113.377 674.06445 L 1111.2109 672.81445 L 1111.2109 671.89844 L 1109.0527 670.65234 L 1109.0527 669.74023 L 1106.8984 668.49609 L 1106.8984 667.58594 L 1104.752 666.3457 L 1104.752 665.43945 L 1102.6094 664.20312 L 1102.6094 663.29883 L 1100.4746 662.06641 L 1100.4746 661.16406 L 1098.3457 659.93555 L 1098.3457 659.0332 L 1096.2227 657.80664 L 1096.2227 656.91211 L 1094.1055 655.68945 L 1094.1055 654.79102 L 1091.9922 653.57031 L 1091.9922 652.68359 L 1089.8867 651.46875 L 1089.8867 650.57812 L 1087.7891 649.36719 L 1087.7891 648.48047 L 1085.6953 647.27148 L 1085.6953 646.38672 L 1083.6094 645.18164 L 1083.6094 644.30078 L 1081.5273 643.09766 L 1081.5273 642.2168 L 1079.4512 641.01758 L 1079.4512 640.14258 L 1077.3848 638.94922 L 1077.3848 638.07422 L 1075.3203 636.88281 L 1075.3203 636.01172 L 1073.2656 634.82617 L 1073.2656 633.95117 L 1071.2129 632.76562 L 1071.2129 631.90234 L 1069.168 630.72266 L 1069.168 629.85742 L 1067.1309 628.68164 L 1067.1309 627.81641 L 1065.0977 626.64258 L 1065.0977 625.78711 L 1063.0723 624.61719 L 1063.0723 623.75781 L 1061.0488 622.58984 L 1061.0488 621.74023 L 1059.0352 620.57812 L 1059.0352 619.72461 L 1057.0273 618.56445 L 1057.0273 617.71484 L 1055.0254 616.55859 L 1055.0254 615.71094 L 1053.0254 614.55664 L 1053.0254 613.7168 L 1051.0371 612.56836 L 1051.0371 611.72461 L 1049.0527 610.57812 L 1049.0527 609.74023 L 1047.0723 608.59766 L 1047.0723 607.76367 L 1045.0996 606.625 L 1045.0996 605.79102 L 1043.1348 604.65625 L 1043.1348 603.82031 L 1041.1738 602.6875 L 1041.1738 601.86328 L 1039.2188 600.73438 L 1039.2188 599.91016 L 1037.2715 598.78516 L 1037.2715 597.95898 L 1035.3301 596.83789 L 1035.3301 596.01562 L 1033.3906 594.89648 L 1033.3906 594.08203 L 1031.459 592.9668 L 1031.459 592.15039 L 1029.5352 591.03906 L 1029.5352 590.22656 L 1027.6191 589.12109 L 1027.6191 588.30664 L 1025.707 587.20312 L 1025.707 586.39453 L 1023.7988 585.29297 L 1023.7988 584.48828 L 1021.9004 583.39258 L 1021.9004 582.58789 L 1020.0039 581.49219 L 1020.0039 580.69336 L 1018.1172 579.60352 L 1018.1172 578.80469 L 1016.2363 577.71875 L 1016.2363 576.92188 L 1014.3574 575.83789 L 1014.3574 575.04688 L 1012.4902 573.96875 L 1012.4902 573.17578 L 1010.623 572.09766 L 1010.623 571.3125 L 1008.7676 570.24219 L 1008.7676 569.45312 L 1006.916 568.38477 L 1006.916 567.60156 L 1005.0664 566.5332 L 1005.0664 565.75781 L 1003.2266 564.69531 L 1003.2266 563.91602 L 1001.3926 562.85742 L 1001.3926 562.08398 L 999.56445 561.0293 L 999.56445 560.25391 L 997.74219 559.20117 L 997.74219 558.43359 L 995.92773 557.38672 L 995.92773 556.61523 L 994.11719 555.57031 L 994.11719 554.80859 L 992.31445 553.76758 L 992.31445 553.00195 L 990.51562 551.96289 L 990.51562 551.20703 L 988.72461 550.17383 L 988.72461 549.41016 L 986.9375 548.37891 L 986.9375 547.62695 L 985.15625 546.59766 L 985.15625 545.84766 L 983.38477 544.82422 L 983.38477 544.07422 L 981.61523 543.05273 L 981.61523 542.30469 L 979.85352 541.28711 L 979.85352 540.54492 L 978.09961 539.5332 L 978.09961 538.78711 L 976.34961 537.77734 L 976.34961 537.03711 L 974.60352 536.0293 L 974.60352 535.29492 L 972.86914 534.29297 L 972.86914 533.55664 L 971.13867 532.55664 L 971.13867 531.82422 L 969.41016 530.82617 L 969.41016 530.10156 L 967.69141 529.10938 L 967.69141 528.38086 L 965.97852 527.39258 L 965.97852 526.66602 L 964.27148 525.67969 L 964.27148 524.95703 L 962.57031 523.97461 L 962.57031 523.25586 L 960.87305 522.27539 L 960.87305 521.5625 L 959.18359 520.58789 L 959.18359 519.87305 L 957.50195 518.90234 L 957.50195 518.1875 L 955.82422 517.21875 L 955.82422 516.50977 L 954.15234 515.54492 L 954.15234 514.83984 L 952.48633 513.87891 L 952.48633 513.17383 L 950.82617 512.21484 L 950.82617 511.51367 L 949.17188 510.55859 L 949.17188 509.86133 L 947.52734 508.91211 L 947.52734 508.21484 L 945.88281 507.26562 L 945.88281 506.57422 L 944.25 505.63086 L 944.25 504.9375 L 942.62109 503.99609 L 942.62109 503.30859 L 940.99609 502.37109 L 940.99609 501.6875 L 939.37891 500.75391 L 939.37891 500.06836 L 937.76953 499.13867 L 937.76953 498.45508 L 936.16211 497.52734 L 936.16211 496.85352 L 934.56445 495.93164 L 934.56445 495.25391 L 932.97266 494.33398 L 932.97266 493.66016 L 931.38477 492.74414 L 931.38477 492.07227 L 929.80078 491.1582 L 929.80078 490.49219 L 928.22852 489.58398 L 928.22852 488.91602 L 926.65625 488.00781 L 926.65625 487.34766 L 925.0957 486.44727 L 925.0957 485.7832 L 923.53906 484.88477 L 923.53906 484.22852 L 921.99023 483.33398 L 921.99023 482.67578 L 920.44336 481.7832 L 920.44336 481.13086 L 918.9043 480.24219 L 918.9043 479.5918 L 917.37109 478.70703 L 917.37109 478.06055 L 915.84375 477.17969 L 915.84375 476.5332 L 914.32422 475.65625 L 914.32422 475.01172 L 912.80859 474.13672 L 912.80859 473.49609 L 911.30078 472.625 L 911.30078 471.98828 L 909.79688 471.11914 L 909.79688 470.48633 L 908.30078 469.62305 L 908.30078 468.99023 L 906.81055 468.12891 L 906.81055 467.49805 L 905.32617 466.64062 L 905.32617 466.01172 L 903.84766 465.1582 L 903.84766 464.5332 L 902.37305 463.68164 L 902.37305 463.06445 L 900.90625 462.2168 L 900.90625 461.59375 L 899.44531 460.75 L 899.44531 460.13477 L 897.99219 459.29492 L 897.99219 458.67969 L 896.54102 457.8418 L 896.54102 457.23242 L 895.10156 456.40039 L 895.10156 455.78906 L 893.66602 454.96094 L 893.66602 454.35156 L 892.23242 453.52344 L 892.23242 452.92383 L 890.80859 452.10156 L 890.80859 451.49805 L 889.39062 450.67969 L 889.39062 450.07812 L 887.97656 449.26172 L 887.97656 448.66797 L 886.57227 447.85742 L 886.57227 447.26172 L 885.17383 446.45508 L 885.17383 445.85938 L 883.77734 445.05273 L 883.77734 444.46484 L 882.38672 443.66211 L 882.38672 443.07812 L 881.00781 442.28125 L 881.00781 441.69531 L 879.62891 440.89844 L 879.62891 440.31836 L 878.25977 439.52734 L 878.25977 438.94727 L 876.89648 438.16016 L 876.89648 437.58594 L 875.53906 436.80273 L 875.53906 436.22461 L 874.18555 435.44336 L 874.18555 434.87305 L 872.83984 434.0957 L 872.83984 433.52734 L 871.49805 432.75195 L 871.49805 432.18945 L 870.16406 431.41992 L 870.16406 430.85547 L 868.83789 430.08984 L 868.83789 429.52344 L 867.51562 428.75977 L 867.51562 428.20117 L 866.19922 427.44141 L 866.19922 426.88672 L 864.88867 426.13086 L 864.88867 425.57812 L 863.58398 424.82422 L 863.58398 424.27539 L 862.28711 423.52734 L 862.28711 422.97461 L 860.99609 422.22852 L 860.99609 421.68164 L 859.71094 420.93945 L 859.71094 420.39648 L 858.42969 419.65625 L 858.42969 419.11914 L 857.15625 418.38477 L 857.15625 417.8418 L 855.88477 417.10742 L 855.88477 416.57617 L 854.62695 415.84961 L 854.62695 415.3125 L 853.36914 414.58594 L 853.36914 414.05859 L 852.12109 413.33789 L 852.12109 412.80664 L 850.87305 412.08594 L 850.87305 411.56445 L 849.63867 410.85156 L 849.63867 410.32812 L 848.40625 409.61719 L 848.40625 409.0957 L 847.18164 408.38867 L 847.18164 407.86719 L 845.96094 407.16211 L 845.96094 406.65039 L 844.74805 405.94922 L 844.74805 405.4375 L 843.53711 404.73828 L 843.53711 404.22852 L 842.33984 403.53711 L 842.33984 403.02539 L 841.14062 402.33398 L 841.14062 401.83203 L 839.95117 401.14453 L 839.95117 400.64062 L 838.76758 399.95703 L 838.76758 399.45898 L 837.5918 398.7793 L 837.5918 398.2793 L 836.41992 397.60352 L 836.41992 397.10742 L 835.25195 396.43359 L 835.25195 395.94336 L 834.0957 395.27539 L 834.0957 394.7832 L 832.93945 394.11523 L 832.93945 393.63086 L 831.79492 392.9707 L 831.79492 392.48438 L 830.65234 391.82422 L 830.65234 391.34375 L 829.51562 390.6875 L 829.51562 390.20508 L 828.38867 389.55469 L 828.38867 389.07617 L 827.26367 388.42578 L 827.26367 387.95312 L 826.14844 387.30859 L 826.14844 386.83789 L 825.03711 386.19531 L 825.03711 385.72266 L 823.92969 385.08398 L 823.92969 384.61914 L 822.83398 383.98633 L 822.83398 383.51953 L 821.73828 382.88672 L 821.73828 382.42773 L 820.65234 381.80078 L 820.65234 381.33984 L 819.57227 380.7168 L 819.57227 380.25781 L 818.49414 379.63477 L 818.49414 379.18555 L 817.42578 378.56836 L 817.42578 378.11523 L 816.36328 377.50195 L 816.36328 377.05273 L 815.30469 376.44141 L 815.30469 375.99414 L 814.25391 375.38672 L 814.25391 374.94336 L 813.21094 374.3418 L 813.21094 373.89844 L 812.17188 373.29883 L 812.17188 372.85938 L 811.13867 372.26367 L 811.13867 371.82617 L 810.11133 371.23242 L 810.11133 370.80078 L 809.0918 370.21289 L 809.0918 369.7793 L 808.07422 369.19141 L 808.07422 368.76367 L 807.06445 368.18164 L 807.06445 367.75586 L 806.06445 367.17773 L 806.06445 366.75195 L 805.06641 366.17578 L 805.06641 365.75586 L 804.07617 365.18359 L 804.07617 364.76562 L 803.08984 364.19531 L 803.08984 363.7793 L 802.11328 363.21484 L 802.11328 362.80078 L 801.13867 362.23828 L 801.13867 361.82812 L 800.17188 361.26953 L 800.17188 360.86133 L 799.21094 360.30664 L 799.21094 359.90039 L 798.25977 359.35156 L 798.25977 358.94531 L 797.31055 358.39648 L 797.31055 357.99805 L 796.36523 357.45312 L 796.36523 357.05469 L 795.42773 356.51367 L 795.42773 356.11914 L 794.49805 355.58203 L 794.49805 355.1875 L 793.57617 354.6543 L 793.57617 354.26367 L 792.6582 353.73438 L 792.6582 353.3457 L 791.74219 352.81641 L 791.74219 352.43359 L 790.83594 351.91016 L 790.83594 351.52539 L 789.93555 351.00586 L 789.93555 350.625 L 789.04102 350.10938 L 789.04102 349.73047 L 788.15234 349.2168 L 788.15234 348.84375 L 787.27148 348.33594 L 787.27148 347.96094 L 786.39453 347.45508 L 786.39453 347.08398 L 785.52539 346.58203 L 785.52539 346.21289 L 784.66016 345.71289 L 784.66016 345.34961 L 783.80273 344.85547 L 783.80273 344.49023 L 782.94727 343.99609 L 782.94727 343.63867 L 782.10547 343.15234 L 782.10547 342.79297 L 781.26172 342.30664 L 781.26172 341.95312 L 780.42773 341.4707 L 780.42773 341.11719 L 779.59961 340.63867 L 779.59961 340.28906 L 778.7793 339.81641 L 778.7793 339.4668 L 777.96289 338.99609 L 777.96289 338.65234 L 777.1543 338.18555 L 777.1543 337.8418 L 776.34961 337.37695 L 776.34961 337.03711 L 775.55078 336.57617 L 775.55078 336.23828 L 774.75781 335.78125 L 774.75781 335.44727 L 773.9707 334.99219 L 773.9707 334.66211 L 773.19336 334.21289 L 773.19336 333.88086 L 772.41797 333.43359 L 772.41797 333.10742 L 771.65039 332.66406 L 771.65039 332.33984 L 770.88672 331.89844 L 770.88672 331.57812 L 770.13086 331.14258 L 770.13086 330.82227 L 769.38281 330.39062 L 769.38281 330.07227 L 768.63867 329.64258 L 768.63867 329.32812 L 767.90234 328.90234 L 767.90234 328.58984 L 767.16797 328.16602 L 767.16797 327.85742 L 766.44336 327.43945 L 766.44336 327.13281 L 765.72461 326.71875 L 765.72461 326.41211 L 765.00977 326 L 765.00977 325.69922 L 764.30273 325.29102 L 764.30273 324.99023 L 763.60156 324.58594 L 763.60156 324.28906 L 762.9043 323.88672 L 762.9043 323.59375 L 762.21289 323.19531 L 762.21289 322.9043 L 761.5293 322.50977 L 761.5293 322.2207 L 760.85352 321.83008 L 760.85352 321.54297 L 760.18359 321.15625 L 760.18359 320.87109 L 759.51562 320.48633 L 759.51562 320.20508 L 758.85742 319.82422 L 758.85742 319.54688 L 758.20312 319.16992 L 758.20312 318.89258 L 757.55664 318.51953 L 757.55664 318.24609 L 756.91406 317.875 L 756.91406 317.60352 L 756.2793 317.23633 L 756.2793 316.96875 L 755.64844 316.60547 L 755.64844 316.33984 L 755.02539 315.98047 L 755.02539 315.71484 L 754.4082 315.35938 L 754.4082 315.09766 L 753.79688 314.74414 L 753.79688 314.48633 L 753.19141 314.13672 L 753.19141 313.88086 L 752.59375 313.53516 L 752.59375 313.28125 L 752.00195 312.93945 L 752.00195 312.68945 L 751.41211 312.34961 L 751.41211 312.10156 L 750.83008 311.76562 L 750.83008 311.51953 L 750.25586 311.1875 L 750.25586 310.94531 L 749.6875 310.61719 L 749.6875 310.375 L 749.125 310.05078 L 749.125 309.8125 L 748.56641 309.49023 L 748.56641 309.25586 L 748.01367 308.9375 L 748.01367 308.70508 L 747.46875 308.39062 L 747.46875 308.16016 L 746.93359 307.85156 L 746.93359 307.62109 L 746.40039 307.3125 L 746.40039 307.08789 L 745.87109 306.7832 L 745.87109 306.56055 L 745.34961 306.25977 L 745.34961 306.03906 L 744.83594 305.74219 L 744.83594 305.52344 L 744.32422 305.22852 L 744.32422 305.01562 L 743.82227 304.72656 L 743.82227 304.51172 L 743.32812 304.22656 L 743.32812 304.01562 L 742.83594 303.73242 L 742.83594 303.52539 L 742.35156 303.24609 L 742.35156 303.03906 L 741.87305 302.76367 L 741.87305 302.56055 L 741.40039 302.28711 L 741.40039 302.08789 L 740.93164 301.81641 L 740.93164 301.62109 L 740.4707 301.35547 L 740.4707 301.16016 L 740.01562 300.89648 L 740.01562 300.70508 L 739.56641 300.44531 L 739.56641 300.25781 L 739.125 300.00391 L 739.125 299.81445 L 738.68945 299.5625 L 738.68945 299.37695 L 738.25977 299.12891 L 738.25977 298.94727 L 737.83203 298.70117 L 737.83203 298.52344 L 737.41602 298.2832 L 737.41602 298.10352 L 737 297.86328 L 737 297.69141 L 736.5957 297.45703 L 736.5957 297.28516 L 736.19531 297.05469 L 736.19531 296.88477 L 735.80273 296.6582 L 735.80273 296.49023 L 735.41211 296.26562 L 735.41211 296.10156 L 735.03125 295.88086 L 735.03125 295.71875 L 734.65234 295.5 L 734.65234 295.3418 L 734.2832 295.12891 L 734.2832 294.97266 L 733.91992 294.76367 L 733.91992 294.60742 L 733.56055 294.40039 L 733.56055 294.25 L 733.20508 294.04492 L 733.20508 293.89648 L 732.86133 293.69727 L 732.86133 293.55078 L 732.52148 293.35547 L 732.52148 293.21094 L 732.18555 293.01758 L 732.18555 292.875 L 731.85938 292.6875 L 731.85938 292.54688 L 731.53516 292.35938 L 731.53516 292.22461 L 731.2207 292.04297 L 731.2207 291.9082 L 730.91211 291.73047 L 730.91211 291.59961 L 730.60547 291.42188 L 730.60547 291.29492 L 730.30664 291.12305 L 730.30664 290.99609 L 730.01562 290.82812 L 730.01562 290.70508 L 729.72852 290.53906 L 729.72852 290.41797 L 729.44922 290.25586 L 729.44922 290.13867 L 729.17578 289.98047 L 729.17578 289.86328 L 728.9082 289.70898 L 728.9082 289.5957 L 728.64453 289.44336 L 728.64453 289.33398 L 728.39062 289.1875 L 728.39062 289.07812 L 728.13672 288.93164 L 728.13672 288.82812 L 727.89453 288.6875 L 727.89453 288.58398 L 727.6582 288.44727 L 727.6582 288.3457 L 727.42773 288.21289 L 727.42773 288.11523 L 727.19922 287.98242 L 727.19922 287.88867 L 726.98047 287.76172 L 726.98047 287.66797 L 726.76562 287.54297 L 726.76562 287.45508 L 726.55664 287.33398 L 726.55664 287.24805 L 726.35742 287.13281 L 726.35742 287.04492 L 726.16016 286.93164 L 726.16016 286.84961 L 725.9707 286.74023 L 725.9707 286.66016 L 725.78711 286.55469 L 725.78711 286.47656 L 725.60938 286.37305 L 725.60938 286.29883 L 725.43945 286.20117 L 725.43945 286.12695 L 725.27148 286.0293 L 725.27148 285.96094 L 725.11328 285.86914 L 725.11328 285.80078 L 724.95898 285.71094 L 724.95898 285.64844 L 724.81055 285.5625 L 724.81055 285.5 L 724.67188 285.41992 L 724.67188 285.35938 L 724.53516 285.28125 L 724.53516 285.22266 L 724.40234 285.14648 L 724.40234 285.09375 L 724.28125 285.02344 L 724.28125 284.9707 L 724.16602 284.9043 L 724.16602 284.85352 L 724.05078 284.78711 L 724.05078 284.74219 L 723.94531 284.68164 L 723.94531 284.63672 L 723.84766 284.58008 L 723.84766 284.53711 L 723.75391 284.48242 L 723.75391 284.44336 L 723.66602 284.39258 L 723.66602 284.35547 L 723.58594 284.30859 L 723.58594 284.27539 L 723.51172 284.23242 L 723.51172 284.19922 L 723.43945 284.1582 L 723.43945 284.13086 L 723.37891 284.0957 L 723.37891 284.06641 L 723.32227 284.0332 L 723.32227 284.00977 L 723.26953 283.97852 L 723.26953 283.95898 L 723.22461 283.93359 L 723.22461 283.91406 L 723.18555 283.89062 L 723.18555 283.875 L 723.15234 283.85547 L 723.15234 283.8418 L 723.125 283.82617 L 723.125 283.81445 L 723.10352 283.80273 L 723.10352 283.79297 L 723.08789 283.7832 L 723.08789 283.77734 L 723.08008 283.77344 L 723.08008 283.76953 L 654.66992 244.27148 L 586.26562 283.76953 L 517.85547 244.27148 L 480.94141 265.58594 L 480.78906 265.49805 L 480.78906 265.03125 L 479.69336 264.39844 L 479.69336 263.93945 L 478.60938 263.31445 L 478.60938 262.85156 L 477.52734 262.22656 L 477.52734 261.77148 L 476.45117 261.15039 L 476.45117 260.69531 L 475.38086 260.07812 L 475.38086 259.62695 L 474.32031 259.01367 L 474.32031 258.56445 L 473.26172 257.95312 L 473.26172 257.50586 L 472.21094 256.89844 L 472.21094 256.45508 L 471.16797 255.85352 L 471.16797 255.41016 L 470.12695 254.80859 L 470.12695 254.37109 L 469.0957 253.77539 L 469.0957 253.33789 L 468.06836 252.74414 L 468.06836 252.31055 L 467.04688 251.7207 L 467.04688 251.29102 L 466.03125 250.70508 L 466.03125 250.27539 L 465.02148 249.69141 L 465.02148 249.26758 L 464.01953 248.68945 L 464.01953 248.26367 L 463.02148 247.6875 L 463.02148 247.26758 L 462.03125 246.69531 L 462.03125 246.27539 L 461.04492 245.70508 L 461.04492 245.29102 L 460.06641 244.72656 L 460.06641 244.3125 L 459.0957 243.75195 L 459.0957 243.33984 L 458.12695 242.78125 L 458.12695 242.37305 L 457.16797 241.82031 L 457.16797 241.41211 L 456.21484 240.86133 L 456.21484 240.45898 L 455.26758 239.91211 L 455.26758 239.50977 L 454.32227 238.96484 L 454.32227 238.56641 L 453.38477 238.02539 L 453.38477 237.63086 L 452.45508 237.09375 L 452.45508 236.69922 L 451.5332 236.16602 L 451.5332 235.77539 L 450.61133 235.24219 L 450.61133 234.85547 L 449.69922 234.32812 L 449.69922 233.94336 L 448.79297 233.41992 L 448.79297 233.03711 L 447.89258 232.51758 L 447.89258 232.13672 L 446.99805 231.62109 L 446.99805 231.24219 L 446.10938 230.72852 L 446.10938 230.35352 L 445.22852 229.8457 L 445.22852 229.47266 L 444.35156 228.9668 L 444.35156 228.5957 L 443.48242 228.09375 L 443.48242 227.72461 L 442.61719 227.22461 L 442.61719 226.86133 L 441.75781 226.36523 L 441.75781 226.00195 L 440.9043 225.50977 L 440.9043 225.15039 L 440.05859 224.66211 L 440.05859 224.30469 L 439.21875 223.82031 L 439.21875 223.46289 L 438.38281 222.98047 L 438.38281 222.62891 L 437.55664 222.15234 L 437.55664 221.80078 L 436.73633 221.32812 L 436.73633 220.97852 L 435.91992 220.50781 L 435.91992 220.16406 L 435.11133 219.69727 L 435.11133 219.35352 L 434.30469 218.88867 L 434.30469 218.54883 L 433.50781 218.08789 L 433.50781 217.75 L 432.71484 217.29297 L 432.71484 216.95898 L 431.92773 216.50391 L 431.92773 216.17188 L 431.15039 215.72266 L 431.15039 215.39258 L 430.375 214.94531 L 430.375 214.61914 L 429.60742 214.17578 L 429.60742 213.84961 L 428.84375 213.4082 L 428.84375 213.08984 L 428.08789 212.6543 L 428.08789 212.33398 L 427.33984 211.90234 L 427.33984 211.58203 L 426.5957 211.15234 L 426.5957 210.83984 L 425.85742 210.41406 L 425.85742 210.10156 L 425.125 209.67773 L 425.125 209.36914 L 424.39844 208.94922 L 424.39844 208.64453 L 423.68164 208.23047 L 423.68164 207.92383 L 422.9668 207.51172 L 422.9668 207.21094 L 422.25977 206.80273 L 422.25977 206.50195 L 421.55664 206.0957 L 421.55664 205.80078 L 420.86133 205.39844 L 420.86133 205.10547 L 420.16992 204.70703 L 420.16992 204.41602 L 419.48633 204.02148 L 419.48633 203.73242 L 418.80859 203.3418 L 418.80859 203.05469 L 418.13672 202.66602 L 418.13672 202.38281 L 417.4707 201.99805 L 417.4707 201.7168 L 416.81445 201.33789 L 416.81445 201.05859 L 416.16016 200.68164 L 416.16016 200.4043 L 415.51367 200.03125 L 415.51367 199.75586 L 414.87109 199.38477 L 414.87109 199.11523 L 414.23633 198.74805 L 414.23633 198.48047 L 413.60547 198.11719 L 413.60547 197.84961 L 412.98047 197.48828 L 412.98047 197.22656 L 412.36523 196.87109 L 412.36523 196.60938 L 411.75391 196.25586 L 411.75391 195.99805 L 411.14844 195.64844 L 411.14844 195.39258 L 410.55078 195.04688 L 410.55078 194.79297 L 409.95703 194.44922 L 409.95703 194.20117 L 409.36914 193.86133 L 409.36914 193.61328 L 408.78711 193.27734 L 408.78711 193.03125 L 408.21094 192.69922 L 408.21094 192.45703 L 407.64453 192.13086 L 407.64453 191.88672 L 407.08203 191.5625 L 407.08203 191.32422 L 406.52148 191 L 406.52148 190.76758 L 405.9707 190.44922 L 405.9707 190.2168 L 405.42578 189.90234 L 405.42578 189.67188 L 404.88867 189.36133 L 404.88867 189.13086 L 404.35352 188.82227 L 404.35352 188.59961 L 403.82812 188.29688 L 403.82812 188.07227 L 403.30664 187.77148 L 403.30664 187.55078 L 402.79102 187.25391 L 402.79102 187.03516 L 402.28125 186.74023 L 402.28125 186.52734 L 401.7793 186.23828 L 401.7793 186.02344 L 401.2832 185.73633 L 401.2832 185.52734 L 400.79297 185.24414 L 400.79297 185.03711 L 400.30859 184.75781 L 400.30859 184.55078 L 399.82812 184.27344 L 399.82812 184.07227 L 399.35547 183.79883 L 399.35547 183.59961 L 398.88672 183.32812 L 398.88672 183.13281 L 398.42578 182.86719 L 398.42578 182.67188 L 397.97266 182.41016 L 397.97266 182.2168 L 397.52344 181.95703 L 397.52344 181.76758 L 397.08008 181.51172 L 397.08008 181.32617 L 396.64648 181.07617 L 396.64648 180.88867 L 396.21484 180.63867 L 396.21484 180.45898 L 395.78906 180.21289 L 395.78906 180.0332 L 395.37305 179.79297 L 395.37305 179.61523 L 394.95703 179.375 L 394.95703 179.20312 L 394.55273 178.96875 L 394.55273 178.79688 L 394.15234 178.56641 L 394.15234 178.39648 L 393.75781 178.16797 L 393.75781 178.00195 L 393.36914 177.77734 L 393.36914 177.61328 L 392.98828 177.39258 L 392.98828 177.23047 L 392.60938 177.01172 L 392.60938 176.85352 L 392.24023 176.64062 L 392.24023 176.48242 L 391.87695 176.27344 L 391.87695 176.11914 L 391.51758 175.91211 L 391.51758 175.75977 L 391.16211 175.55469 L 391.16211 175.4082 L 390.81836 175.20898 L 390.81836 175.0625 L 390.47852 174.86719 L 390.47852 174.7207 L 390.14258 174.52734 L 390.14258 174.38672 L 389.8125 174.19531 L 389.8125 174.05859 L 389.49219 173.87305 L 389.49219 173.73633 L 389.17773 173.55469 L 389.17773 173.41992 L 388.86719 173.24023 L 388.86719 173.10938 L 388.5625 172.93359 L 388.5625 172.80664 L 388.26367 172.63477 L 388.26367 172.50781 L 387.97266 172.33984 L 387.97266 172.21484 L 387.68555 172.04883 L 387.68555 171.92969 L 387.40625 171.76758 L 387.40625 171.65039 L 387.13281 171.49219 L 387.13281 171.375 L 386.86523 171.2207 L 386.86523 171.10742 L 386.59961 170.95312 L 386.59961 170.8457 L 386.34766 170.70117 L 386.34766 170.58984 L 386.09375 170.44336 L 386.09375 170.33984 L 385.85156 170.19922 L 385.85156 170.0957 L 385.61328 169.95898 L 385.61328 169.85742 L 385.38281 169.72461 L 385.38281 169.625 L 385.15625 169.49414 L 385.15625 169.40039 L 384.9375 169.27344 L 384.9375 169.17969 L 384.72266 169.05469 L 384.72266 168.9668 L 384.51367 168.8457 L 384.51367 168.75781 L 384.31445 168.64258 L 384.31445 168.55664 L 384.11719 168.44336 L 384.11719 168.36133 L 383.92773 168.25195 L 383.92773 168.17188 L 383.74219 168.06445 L 383.74219 167.98828 L 383.56445 167.88477 L 383.56445 167.81055 L 383.39453 167.71289 L 383.39453 167.63867 L 383.22852 167.54297 L 383.22852 167.47266 L 383.07031 167.38086 L 383.07031 167.3125 L 382.91602 167.22266 L 382.91602 167.16016 L 382.76758 167.07422 L 382.76758 167.01172 L 382.62891 166.93164 L 382.62891 166.87109 L 382.49219 166.79297 L 382.49219 166.73438 L 382.35938 166.6582 L 382.35938 166.60547 L 382.23828 166.53516 L 382.23828 166.48242 L 382.12109 166.41406 L 382.12109 166.36328 L 382.00781 166.29883 L 382.00781 166.25391 L 381.90234 166.19336 L 381.90234 166.14844 L 381.80469 166.0918 L 381.80469 166.04883 L 381.70898 165.99414 L 381.70898 165.95508 L 381.62305 165.90625 L 381.62305 165.86719 L 381.54297 165.82031 L 381.54297 165.78711 L 381.4668 165.74219 L 381.4668 165.71094 L 381.39648 165.66992 L 381.39648 165.64062 L 381.33594 165.60547 L 381.33594 165.57812 L 381.2793 165.54492 L 381.2793 165.52148 L 381.22656 165.49023 L 381.22656 165.4707 L 381.17969 165.44336 L 381.17969 165.42383 L 381.14258 165.40234 L 381.14258 165.38477 L 381.10938 165.36523 L 381.10938 165.35156 L 381.08203 165.33594 L 381.08203 165.32617 L 381.05859 165.3125 L 381.05859 165.30469 L 381.04492 165.29688 L 381.04492 165.28906 L 381.03711 165.28516 L 381.03711 165.2793 L 312.62891 125.78516 z "
       transform="scale(0.26458333)"
       inkscape:export-filename="D:\OneDrive - Universidad de Córdoba\github-website\dyn-gos.github.io\assets\img\portfolio\path12511.png"
       inkscape:export-xdpi="96"
       inkscape:export-ydpi="96" />
    <g
       id="g9010">
      <g
         id="g9000">
        <path
           sodipodi:type="star"
           style="fill:#cc9900;fill-rule:evenodd"
           id="path37"
           inkscape:flatsided="true"
           sodipodi:sides="6"
           sodipodi:cx="276.65051"
           sodipodi:cy="129.73955"
           sodipodi:r1="206.77116"
           sodipodi:r2="179.06909"
           sodipodi:arg1="1.5707963"
           sodipodi:arg2="2.0943951"
           inkscape:rounded="0"
           inkscape:randomized="0"
           transform="matrix(0.10107746,0,0,0.10107746,36.652251,72.415841)"
           d="M 276.65052,336.51071 97.581435,233.12513 97.581429,26.353971 276.65051,-77.031616 455.71959,26.353961 l 1e-5,206.771159 z" />
        <path
           sodipodi:type="star"
           style="fill:#ff3300;fill-rule:evenodd"
           id="path37-5"
           inkscape:flatsided="true"
           sodipodi:sides="6"
           sodipodi:cx="276.65051"
           sodipodi:cy="129.73955"
           sodipodi:r1="206.77116"
           sodipodi:r2="179.06909"
           sodipodi:arg1="1.5707963"
           sodipodi:arg2="2.0943951"
           inkscape:rounded="0"
           inkscape:randomized="0"
           transform="matrix(0.10107746,0,0,0.10107746,54.752099,41.065983)"
           d="M 276.65052,336.51071 97.581435,233.12513 97.581429,26.353971 276.65051,-77.031616 455.71959,26.353961 l 1e-5,206.771159 z" />
        <path
           sodipodi:type="star"
           style="fill:#0099ff;fill-rule:evenodd"
           id="path37-6"
           inkscape:flatsided="true"
           sodipodi:sides="6"
           sodipodi:cx="276.65051"
           sodipodi:cy="129.73955"
           sodipodi:r1="206.77116"
           sodipodi:r2="179.06909"
           sodipodi:arg1="1.5707963"
           sodipodi:arg2="2.0943951"
           inkscape:rounded="0"
           inkscape:randomized="0"
           transform="matrix(0.10107746,0,0,0.10107746,72.851948,72.41584)"
           d="M 276.65052,336.51071 97.581435,233.12513 97.581429,26.353971 276.65051,-77.031616 455.71959,26.353961 l 1e-5,206.771159 z" />
        <path
           sodipodi:type="star"
           style="fill:#808080;fill-opacity:1;fill-rule:evenodd"
           id="path37-7"
           inkscape:flatsided="true"
           sodipodi:sides="6"
           sodipodi:cx="276.65051"
           sodipodi:cy="129.73955"
           sodipodi:r1="206.77116"
           sodipodi:r2="179.06909"
           sodipodi:arg1="1.5707963"
           sodipodi:arg2="2.0943951"
           inkscape:rounded="0"
           inkscape:randomized="0"
           transform="matrix(0.10107746,0,0,0.10107746,109.05164,72.415839)"
           d="M 276.65052,336.51071 97.581435,233.12513 97.581429,26.353971 276.65051,-77.031616 455.71959,26.353961 l 1e-5,206.771159 z" />
        <path
           sodipodi:type="star"
           style="fill:#ffcc00;fill-rule:evenodd"
           id="path37-1"
           inkscape:flatsided="true"
           sodipodi:sides="6"
           sodipodi:cx="276.65051"
           sodipodi:cy="129.73955"
           sodipodi:r1="206.77116"
           sodipodi:r2="179.06909"
           sodipodi:arg1="1.5707963"
           sodipodi:arg2="2.0943951"
           inkscape:rounded="0"
           inkscape:randomized="0"
           transform="matrix(0.10107746,0,0,0.10107746,127.15149,103.76569)"
           d="M 276.65052,336.51071 97.581435,233.12513 97.581429,26.353971 276.65051,-77.031616 455.71959,26.353961 l 1e-5,206.771159 z" />
        <path
           sodipodi:type="star"
           style="fill:#009900;fill-rule:evenodd"
           id="path37-0"
           inkscape:flatsided="true"
           sodipodi:sides="6"
           sodipodi:cx="276.65051"
           sodipodi:cy="129.73955"
           sodipodi:r1="206.77116"
           sodipodi:r2="179.06909"
           sodipodi:arg1="1.5707963"
           sodipodi:arg2="2.0943951"
           inkscape:rounded="0"
           inkscape:randomized="0"
           transform="matrix(0.10107746,0,0,0.10107746,90.951796,103.76569)"
           d="M 276.65052,336.51071 97.581435,233.12513 97.581429,26.353971 276.65051,-77.031616 455.71959,26.353961 l 1e-5,206.771159 z" />
        <path
           sodipodi:type="star"
           style="fill:#ffff00;fill-rule:evenodd"
           id="path37-687"
           inkscape:flatsided="true"
           sodipodi:sides="6"
           sodipodi:cx="276.65051"
           sodipodi:cy="129.73955"
           sodipodi:r1="206.77116"
           sodipodi:r2="179.06909"
           sodipodi:arg1="1.5707963"
           sodipodi:arg2="2.0943951"
           inkscape:rounded="0"
           inkscape:randomized="0"
           transform="matrix(0.10107746,0,0,0.10107746,145.25134,72.415837)"
           d="M 276.65052,336.51071 97.581435,233.12513 97.581429,26.353971 276.65051,-77.031616 455.71959,26.353961 l 1e-5,206.771159 z" />
      </g>
    </g>
    <text
       xml:space="preserve"
       transform="matrix(0.31544906,-0.11736854,0.10708684,0.34573617,-3.795188,-84.165144)"
       id="text3946"
       style="font-style:normal;font-weight:normal;font-size:85.3333px;line-height:1.25;font-family:sans-serif;white-space:pre;shape-inside:url(#rect3948);fill:#000000;fill-opacity:1;stroke:none"><tspan
         x="32.435547"
         y="568.192"
         id="tspan36555"><tspan
           style="font-family:'Matura MT Script Capitals';-inkscape-font-specification:'Matura MT Script Capitals'"
           id="tspan36553">Territory</tspan></tspan></text>
  </g>
</svg>
